<svg width="22" height="22" viewBox="0 0 22 22" fill="none" xmlns="http://www.w3.org/2000/svg">
<path fill-rule="evenodd" clip-rule="evenodd" d="M7.33333 4.58398C8.53575 4.58398 9.55753 5.35505 9.93135 6.42986C9.98078 6.42161 10.0316 6.41732 10.0833 6.41732H18.3333C18.8396 6.41732 19.25 6.82772 19.25 7.33398C19.25 7.84025 18.8396 8.25065 18.3333 8.25065H10.0833C10.0316 8.25065 9.98078 8.24636 9.93135 8.23811C9.55753 9.31292 8.53575 10.084 7.33333 10.084C6.13091 10.084 5.10914 9.31292 4.73532 8.23811C4.68588 8.24636 4.63511 8.25065 4.58333 8.25065H3.66667C3.16041 8.25065 2.75 7.84025 2.75 7.33398C2.75 6.82772 3.16041 6.41732 3.66667 6.41732H4.58333C4.63511 6.41732 4.68588 6.42161 4.73532 6.42986C5.10914 5.35505 6.13091 4.58398 7.33333 4.58398ZM17.2647 13.7632C16.8909 12.6884 15.8691 11.9173 14.6667 11.9173C13.4642 11.9173 12.4425 12.6884 12.0687 13.7632C12.0192 13.7549 11.9684 13.7507 11.9167 13.7507H3.66667C3.16041 13.7507 2.75 14.1611 2.75 14.6673C2.75 15.1736 3.1604 15.584 3.66667 15.584H11.9167C11.9684 15.584 12.0192 15.5797 12.0687 15.5714C12.4425 16.6463 13.4642 17.4173 14.6667 17.4173C15.8691 17.4173 16.8909 16.6463 17.2647 15.5714C17.3141 15.5797 17.3649 15.584 17.4167 15.584H18.3333C18.8396 15.584 19.25 15.1736 19.25 14.6673C19.25 14.1611 18.8396 13.7507 18.3333 13.7507H17.4167C17.3649 13.7507 17.3141 13.7549 17.2647 13.7632ZM15.5833 14.6673C15.5833 15.174 15.1733 15.584 14.6667 15.584C14.16 15.584 13.75 15.174 13.75 14.6673C13.75 14.1607 14.16 13.7507 14.6667 13.7507C15.1733 13.7507 15.5833 14.1607 15.5833 14.6673ZM7.33333 8.25065C7.83999 8.25065 8.25 7.84064 8.25 7.33398C8.25 6.82733 7.83999 6.41732 7.33333 6.41732C6.82668 6.41732 6.41667 6.82733 6.41667 7.33398C6.41667 7.84064 6.82668 8.25065 7.33333 8.25065Z" fill="#0073FF"/>
</svg>
