<svg width="13" height="13" viewBox="0 0 13 13" fill="none" xmlns="http://www.w3.org/2000/svg">
    <path fill-rule="evenodd" clip-rule="evenodd" d="M6.5 0.25C6.71626 0.25 6.91377 0.372067 7.00949 0.564883L8.6331 3.83536L12.264 4.36304C12.4779 4.39413 12.6556 4.54328 12.7223 4.74779C12.789 4.9523 12.7331 5.17673 12.5782 5.32674L9.95142 7.87066L10.5714 11.4646C10.6079 11.6765 10.5203 11.8907 10.3453 12.0171C10.1703 12.1435 9.93832 12.1602 9.74689 12.0601L6.5 10.3623L3.25311 12.0601C3.06168 12.1602 2.82969 12.1435 2.65471 12.0171C2.47972 11.8907 2.39208 11.6765 2.42864 11.4646L3.04858 7.87066L0.421759 5.32674C0.266863 5.17673 0.211026 4.9523 0.277718 4.74779C0.344409 4.54328 0.522068 4.39413 0.736022 4.36304L4.3669 3.83536L5.99051 0.564883C6.08623 0.372067 6.28374 0.25 6.5 0.25ZM6.5 2.09128L5.25381 4.60151C5.17112 4.76808 5.01136 4.88358 4.8265 4.91045L2.03888 5.31558L4.05554 7.26859C4.18955 7.39838 4.25073 7.58545 4.2191 7.76879L3.74329 10.5272L6.23554 9.224C6.4011 9.13743 6.5989 9.13743 6.76446 9.224L9.25671 10.5272L8.7809 7.76879C8.74927 7.58545 8.81044 7.39838 8.94446 7.26859L10.9611 5.31558L8.1735 4.91045C7.98864 4.88358 7.82888 4.76808 7.74619 4.60151L6.5 2.09128Z" fill="#FEBB01"/>
    <path d="M5.25381 4.60151L6.5 2.09128L7.74619 4.60151C7.82888 4.76808 7.98864 4.88358 8.1735 4.91045L10.9611 5.31558L8.94446 7.26859C8.81044 7.39838 8.74927 7.58545 8.7809 7.76879L9.25671 10.5272L6.76446 9.224C6.5989 9.13743 6.4011 9.13743 6.23554 9.224L3.74329 10.5272L4.2191 7.76879C4.25073 7.58545 4.18955 7.39838 4.05554 7.26859L2.03888 5.31558L4.8265 4.91045C5.01136 4.88358 5.17112 4.76808 5.25381 4.60151Z" fill="#FEBB01"/>
</svg>