<svg width="24" height="24" viewBox="0 0 24 24" fill="none" xmlns="http://www.w3.org/2000/svg">
<g id="Icons / Interface / Binance">
<g id="Group 215">
<path id="Vector" d="M7.33912 10.0849L11.9999 5.42428L16.6631 10.0873L19.3751 7.37536L11.9999 0L4.62717 7.3729L7.33912 10.0849Z" fill="#F3BA2F"/>
<path id="Vector_2" d="M5.42394 11.9994L2.71204 9.28748L-2.66145e-06 11.9995L2.7119 14.7114L5.42394 11.9994Z" fill="#F3BA2F"/>
<path id="Vector_3" d="M7.33913 13.9147L11.9999 18.5753L16.6629 13.9125L19.3764 16.6229L19.3751 16.6244L11.9999 23.9996L4.62699 16.6269L4.6232 16.6231L7.33913 13.9147Z" fill="#F3BA2F"/>
<path id="Vector_4" d="M21.288 14.7126L24 12.0006L21.2881 9.28871L18.5761 12.0007L21.288 14.7126Z" fill="#F3BA2F"/>
<path id="Vector_5" d="M14.7507 11.9984H14.7519L11.9999 9.24646L9.96619 11.2802H9.966L9.73247 11.5139L9.25043 11.9959L9.24664 11.9997L9.25043 12.0037L11.9999 14.7532L14.7519 12.0013L14.7532 11.9997L14.7507 11.9984Z" fill="#F3BA2F"/>
</g>
</g>
</svg>
