<svg width="24" height="24" viewBox="0 0 24 24" fill="none" xmlns="http://www.w3.org/2000/svg">
<g id="Icons / Interface / Bitfinex">
<g id="Group 216">
<path id="Path-1-Copy-9" d="M0.90829 20.4031C2.01492 21.575 8.09325 27.1919 17.6339 20.6731C24.5328 15.3005 24.3604 3.65238 23.6977 0.134871C23.4668 0.646785 15.4536 18.1947 0.90829 20.4031ZM23.6968 0.131893C23.6123 0.0969856 14.7365 -1.1131 5.96215 4.53828C0.513558 8.04759 -0.206679 13.1839 0.0419196 16.6064C12.7972 15.179 23.4074 0.534316 23.6968 0.131893Z" fill="#97C554"/>
<path id="Path-1-Copy-8" d="M23.6968 0.131893C23.6123 0.0969856 14.7365 -1.1131 5.96215 4.53828C0.513558 8.04759 -0.206679 13.1839 0.0419196 16.6064C12.7972 15.179 23.4074 0.534316 23.6968 0.131893Z" fill="#709B30"/>
</g>
</g>
</svg>
