<svg width="24" height="24" viewBox="0 0 24 24" fill="none" xmlns="http://www.w3.org/2000/svg">
<g id="Icons / Interface / Bitstamp">
<rect id="Rectangle 451" width="24" height="24" rx="2" fill="#EBEFF5"/>
<g id="Group 213">
<path id="Vector" d="M12.9897 16.0043C13.7028 16.0127 14.4362 15.9182 15.0969 15.6168C15.7577 15.3154 16.3486 14.8203 16.7015 14.1529C17.216 13.2015 17.2283 11.9702 16.7499 10.9966C16.4016 10.2862 15.7774 9.76534 15.0806 9.48129C15.5309 9.23132 15.9519 8.90003 16.2271 8.44375C16.661 7.80209 16.7257 6.97087 16.6284 6.20901C16.5202 5.57227 16.2218 4.98952 15.7774 4.54715C15.1161 3.89712 14.2155 3.56523 13.3296 3.50483C11.093 3.49646 8.86024 3.50065 6.6275 3.50483C6.63144 4.05201 6.623 4.59858 6.63144 5.14994C6.91905 5.1625 7.20665 5.21871 7.45824 5.3736C7.98054 5.65346 8.31711 6.24369 8.37395 6.85485C8.4012 7.35858 8.23927 7.85323 7.92369 8.23026C7.595 8.61358 7.11716 8.85458 6.62919 8.83305C6.63313 9.33238 6.62919 9.83172 6.63313 10.3358C6.97364 10.3615 7.32203 10.4435 7.60176 10.6588C8.11224 11.0074 8.40378 11.6574 8.37564 12.2949C8.39748 12.6242 8.34177 12.954 8.21355 13.2547C7.93776 13.8963 7.29783 14.3484 6.62919 14.3359C6.63313 14.8908 6.62919 15.4464 6.62919 16.0019L12.9897 16.0043ZM14.7525 12.7404C14.6907 13.0374 14.559 13.3129 14.3697 13.5411C14.1804 13.7693 13.9397 13.9428 13.6702 14.0453C13.2734 14.2043 12.8434 14.1876 12.4263 14.1876C11.6384 14.1876 10.8538 14.1828 10.0675 14.1918C10.0596 12.93 10.0596 11.6684 10.0675 10.407C10.7204 10.4202 11.3766 10.4112 12.0329 10.4112C12.4747 10.4154 12.9244 10.3897 13.3623 10.4632C13.8244 10.5619 14.2701 10.8334 14.5251 11.2639C14.7969 11.6945 14.8453 12.2411 14.7525 12.7404ZM10.0596 5.30064H12.5963C13.127 5.27911 13.6865 5.48542 14.0472 5.9118C14.3878 6.30828 14.4806 6.88057 14.3996 7.39724C14.3107 8.02574 13.808 8.52089 13.2486 8.68893C12.9109 8.80554 12.5518 8.76249 12.1995 8.77086H10.0607C10.0636 7.61252 10.0636 6.45897 10.0596 5.30064Z" fill="#282828"/>
<path id="Vector_2" d="M13.1027 18.6953C10.9431 18.6995 8.78695 18.6822 6.6302 18.6995C6.61782 19.2975 6.61782 19.8955 6.6302 20.4905C8.69296 20.5079 10.7552 20.4953 12.8179 20.4995C14.2447 20.4953 15.6709 20.5079 17.0954 20.4905C17.1078 19.8967 17.1078 19.2981 17.0954 18.6995C15.7654 18.6822 14.4321 18.6995 13.1027 18.6953Z" fill="#4A9D53"/>
</g>
</g>
</svg>
