<svg width="14" height="12" viewBox="0 0 14 12" fill="none" xmlns="http://www.w3.org/2000/svg">
<path fill-rule="evenodd" clip-rule="evenodd" d="M6.14161 0.224692C6.40325 0.0773863 6.69844 0 6.9987 0C7.29896 0 7.59415 0.0773863 7.85579 0.224692C8.11743 0.371997 8.33668 0.58425 8.49241 0.84097L8.49408 0.843735L13.4265 9.07806L13.4312 9.0861C13.5838 9.35027 13.6645 9.64978 13.6654 9.95483C13.6662 10.2599 13.5872 10.5598 13.4361 10.8249C13.2851 11.0899 13.0672 11.3107 12.8043 11.4654C12.5414 11.6201 12.2426 11.7033 11.9375 11.7066L11.9311 11.7067L2.05986 11.7067C1.75482 11.7033 1.45599 11.6201 1.19308 11.4654C0.930164 11.3107 0.712342 11.0899 0.561281 10.8249C0.410219 10.5598 0.331184 10.2599 0.332038 9.95483C0.332892 9.64978 0.413606 9.35027 0.566149 9.0861L0.57088 9.07806L5.50332 0.84374L6.00288 1.14298L5.50499 0.84097C5.66071 0.58425 5.87997 0.371997 6.14161 0.224692ZM6.5015 1.44385L1.57283 9.67187C1.52323 9.75911 1.497 9.8577 1.49672 9.95809C1.49643 10.0598 1.52278 10.1598 1.57313 10.2481C1.62349 10.3364 1.69609 10.4101 1.78373 10.4616C1.8706 10.5127 1.96924 10.5404 2.06998 10.542H11.9274C12.0282 10.5404 12.1268 10.5127 12.2137 10.4616C12.3013 10.4101 12.3739 10.3364 12.4243 10.2481C12.4746 10.1598 12.501 10.0598 12.5007 9.95809C12.5004 9.85771 12.4742 9.75913 12.4246 9.6719L7.4966 1.44501L7.4959 1.44385C7.44403 1.3588 7.37121 1.28846 7.28439 1.23958C7.19718 1.19048 7.09878 1.16468 6.9987 1.16468C6.89861 1.16468 6.80022 1.19048 6.713 1.23958C6.62618 1.28846 6.55336 1.3588 6.5015 1.44385ZM6.99869 3.5539C7.32031 3.5539 7.58103 3.81462 7.58103 4.13624V6.46561C7.58103 6.78723 7.32031 7.04795 6.99869 7.04795C6.67707 7.04795 6.41634 6.78723 6.41634 6.46561V4.13624C6.41634 3.81462 6.67707 3.5539 6.99869 3.5539ZM6.99869 8.21262C6.67707 8.21262 6.41634 8.47335 6.41634 8.79497C6.41634 9.11658 6.67707 9.37731 6.99869 9.37731H7.00451C7.32613 9.37731 7.58685 9.11658 7.58685 8.79497C7.58685 8.47335 7.32613 8.21262 7.00451 8.21262H6.99869Z" fill="#FF524F"/>
</svg>
