<svg width="24" height="24" viewBox="0 0 24 24" fill="none" xmlns="http://www.w3.org/2000/svg">
<g id="Icons / Interface / cex">
<g id="Vector">
<path d="M23.9996 0H11.9776V0.00301178C8.78131 0.00516305 5.76117 1.2529 3.49952 3.51776C1.24001 5.7796 0 8.79138 0 11.9976C0 15.2035 1.24647 18.2161 3.50641 20.4784C5.76936 22.7441 8.78648 24 12.0009 24C12.0775 24 12.1546 23.9905 12.2283 23.9905H24V20.9861H11.9776V20.9882C9.59233 20.9861 7.32034 20.0516 5.62636 18.3564C3.93324 16.6607 3.00506 14.4028 3.00506 11.9985C3.00506 9.59423 3.93927 7.33626 5.63282 5.64106C7.32809 3.94328 9.59018 3.01479 12.0004 3.01479C12.0711 3.01479 12.1413 3.00575 12.2089 3.00575H23.9996V0Z" fill="url(#paint0_linear)"/>
<path d="M15.8195 5.2465H11.9948C11.9091 5.2465 11.8256 5.25124 11.7437 5.26458C8.14213 5.39752 5.25293 8.36886 5.25293 12.0015C5.25293 15.7185 8.27737 18.7436 11.9953 18.7436H15.7282L18.7527 15.7387H11.9944C9.93388 15.7387 8.25756 14.0598 8.25756 12.0002C8.25756 9.94014 9.93388 8.2656 11.9944 8.2656C12.0689 8.2656 12.1426 8.25097 12.2145 8.25097H18.8056L15.8195 5.2465Z" fill="url(#paint1_linear)"/>
<path d="M23.9996 5.2465H18.7987L21.7853 8.25097H23.9996V5.2465Z" fill="url(#paint2_linear)"/>
<path d="M23.9996 15.7391H21.7526L18.7273 18.744H23.9996V15.7391Z" fill="url(#paint3_linear)"/>
<path d="M10.4921 11.9955C10.4921 12.8254 11.1648 13.4975 11.9948 13.4975H21.001L22.5153 11.9933L21.0247 10.493H11.9944C11.1648 10.4926 10.4921 11.1651 10.4921 11.9955Z" fill="url(#paint4_linear)"/>
</g>
</g>
<defs>
<linearGradient id="paint0_linear" x1="13.0298" y1="15.1531" x2="19.353" y2="8.82315" gradientUnits="userSpaceOnUse">
<stop stop-color="#20BCC5"/>
<stop offset="1" stop-color="#00B69F"/>
</linearGradient>
<linearGradient id="paint1_linear" x1="13.0298" y1="15.1531" x2="19.353" y2="8.82315" gradientUnits="userSpaceOnUse">
<stop stop-color="#20BCC5"/>
<stop offset="1" stop-color="#00B69F"/>
</linearGradient>
<linearGradient id="paint2_linear" x1="13.0298" y1="15.1531" x2="19.353" y2="8.82315" gradientUnits="userSpaceOnUse">
<stop stop-color="#20BCC5"/>
<stop offset="1" stop-color="#00B69F"/>
</linearGradient>
<linearGradient id="paint3_linear" x1="13.0298" y1="15.1531" x2="19.353" y2="8.82315" gradientUnits="userSpaceOnUse">
<stop stop-color="#20BCC5"/>
<stop offset="1" stop-color="#00B69F"/>
</linearGradient>
<linearGradient id="paint4_linear" x1="13.0298" y1="15.1531" x2="19.353" y2="8.82315" gradientUnits="userSpaceOnUse">
<stop stop-color="#20BCC5"/>
<stop offset="1" stop-color="#00B69F"/>
</linearGradient>
</defs>
</svg>
