<svg width="24" height="24" viewBox="0 0 24 24" fill="none" xmlns="http://www.w3.org/2000/svg">
<g id="Icons / Interface / Coinbase">
<path id="blue" fill-rule="evenodd" clip-rule="evenodd" d="M15.7764 19.5008C17.0372 19.5008 18.214 19.2486 19.3487 18.8284C19.3487 18.8704 21.6182 22.4007 21.6602 22.4007C19.6429 23.4934 17.3734 24.0398 15.1039 23.9977C8.08534 23.9977 3 19.3747 3 12.0199C3 4.62304 8.3375 0 15.1039 0C17.4995 0 19.3908 0.504333 21.282 1.513L19.0966 5.21142C17.9618 4.74912 16.785 4.53898 15.5242 4.53898C11.4055 4.53898 8.16939 7.18672 8.16939 11.9779C8.16939 16.6009 11.2794 19.5008 15.7764 19.5008Z" fill="#0667D0"/>
</g>
</svg>
