<svg width="18" height="18" viewBox="0 0 18 18" fill="none" xmlns="http://www.w3.org/2000/svg">
<path fill-rule="evenodd" clip-rule="evenodd" d="M8.97982 1.99537C9.17507 1.73123 9.19693 1.37704 9.03566 1.09089C8.87439 0.804736 8.56007 0.640011 8.233 0.670237C6.65689 0.81589 5.15485 1.4074 3.90264 2.37556C2.65044 3.34372 1.69986 4.64849 1.16213 6.13718C0.624403 7.62587 0.521773 9.23692 0.866247 10.7818C1.21072 12.3267 1.98805 13.7415 3.10728 14.8608C4.22651 15.98 5.64135 16.7573 7.18624 17.1018C8.73113 17.4463 10.3422 17.3436 11.8309 16.8059C13.3196 16.2682 14.6243 15.3176 15.5925 14.0654C16.5606 12.8132 17.1522 11.3112 17.2978 9.73505C17.2978 9.73505 17.2978 9.23902 16.9165 9.00002C16.5352 8.76102 15.9727 8.98823 15.9727 8.98823C15.0096 9.70008 13.8231 10.0426 12.6288 9.95357C11.4346 9.86451 10.3119 9.34976 9.46511 8.50294C8.61829 7.65613 8.10355 6.5335 8.01449 5.33924C7.92543 4.14498 8.26797 2.95842 8.97982 1.99537ZM15.2688 11.2364C14.3912 11.5539 13.4498 11.6861 12.5049 11.6156C10.9125 11.4969 9.41568 10.8105 8.2866 9.68146C7.15751 8.55237 6.47118 7.05553 6.35243 5.46318C6.28197 4.51821 6.41417 3.57685 6.73168 2.69925C6.08366 2.93371 5.47268 3.26839 4.92208 3.69409C3.92032 4.46862 3.15985 5.51243 2.72967 6.70339C2.29949 7.89434 2.21739 9.18318 2.49297 10.4191C2.76855 11.655 3.39041 12.7869 4.28579 13.6823C5.18118 14.5776 6.31305 15.1995 7.54896 15.4751C8.78487 15.7507 10.0737 15.6686 11.2647 15.2384C12.4556 14.8082 13.4994 14.0477 14.274 13.046C14.6997 12.4954 15.0343 11.8844 15.2688 11.2364Z" fill="#505F79"/>
</svg>
