<svg width="14" height="14" viewBox="0 0 14 14" fill="none" xmlns="http://www.w3.org/2000/svg">
<path fill-rule="evenodd" clip-rule="evenodd" d="M0.333496 1.00004C0.333496 0.631851 0.631973 0.333374 1.00016 0.333374H5.66683C6.03502 0.333374 6.3335 0.631851 6.3335 1.00004V5.66671C6.3335 6.0349 6.03502 6.33337 5.66683 6.33337H1.00016C0.631973 6.33337 0.333496 6.0349 0.333496 5.66671V1.00004ZM1.66683 1.66671V5.00004H5.00016V1.66671H1.66683Z" fill="#091E42"/>
<path fill-rule="evenodd" clip-rule="evenodd" d="M7.66683 1.00004C7.66683 0.631851 7.96531 0.333374 8.3335 0.333374H13.0002C13.3684 0.333374 13.6668 0.631851 13.6668 1.00004V5.66671C13.6668 6.0349 13.3684 6.33337 13.0002 6.33337H8.3335C7.96531 6.33337 7.66683 6.0349 7.66683 5.66671V1.00004ZM9.00016 1.66671V5.00004H12.3335V1.66671H9.00016Z" fill="#091E42"/>
<path fill-rule="evenodd" clip-rule="evenodd" d="M7.66683 8.33337C7.66683 7.96518 7.96531 7.66671 8.3335 7.66671H13.0002C13.3684 7.66671 13.6668 7.96518 13.6668 8.33337V13C13.6668 13.3682 13.3684 13.6667 13.0002 13.6667H8.3335C7.96531 13.6667 7.66683 13.3682 7.66683 13V8.33337ZM9.00016 9.00004V12.3334H12.3335V9.00004H9.00016Z" fill="#091E42"/>
<path fill-rule="evenodd" clip-rule="evenodd" d="M0.333496 8.33337C0.333496 7.96518 0.631973 7.66671 1.00016 7.66671H5.66683C6.03502 7.66671 6.3335 7.96518 6.3335 8.33337V13C6.3335 13.3682 6.03502 13.6667 5.66683 13.6667H1.00016C0.631973 13.6667 0.333496 13.3682 0.333496 13V8.33337ZM1.66683 9.00004V12.3334H5.00016V9.00004H1.66683Z" fill="#091E42"/>
</svg>
