<svg width="16" height="17" viewBox="0 0 16 17" fill="none" xmlns="http://www.w3.org/2000/svg">
    <path fill-rule="evenodd" clip-rule="evenodd" d="M3.63634 0.71967C3.92923 0.426777 4.4041 0.426777 4.697 0.71967L7.61366 3.63634C7.90656 3.92923 7.90656 4.4041 7.61366 4.697C7.32077 4.98989 6.8459 4.98989 6.553 4.697L4.91667 3.06066V14.5833C4.91667 14.9975 4.58088 15.3333 4.16667 15.3333C3.75245 15.3333 3.41667 14.9975 3.41667 14.5833V3.06066L1.78033 4.697C1.48744 4.98989 1.01256 4.98989 0.71967 4.697C0.426777 4.4041 0.426777 3.92923 0.71967 3.63634L3.63634 0.71967ZM11.6667 1.33333C12.0809 1.33333 12.4167 1.66912 12.4167 2.08333V13.606L14.053 11.9697C14.3459 11.6768 14.8208 11.6768 15.1137 11.9697C15.4066 12.2626 15.4066 12.7374 15.1137 13.0303L12.197 15.947C11.9041 16.2399 11.4292 16.2399 11.1363 15.947L8.21967 13.0303C7.92678 12.7374 7.92678 12.2626 8.21967 11.9697C8.51256 11.6768 8.98744 11.6768 9.28033 11.9697L10.9167 13.606V2.08333C10.9167 1.66912 11.2525 1.33333 11.6667 1.33333Z" fill="#091E42"/>
</svg>