<svg width="16" height="13" viewBox="0 0 16 13" fill="none" xmlns="http://www.w3.org/2000/svg">
<path fill-rule="evenodd" clip-rule="evenodd" d="M14.875 0.790347C15.2202 0.790347 15.5 1.07024 15.5 1.41549V5.16638C15.5 5.51164 15.2202 5.79153 14.875 5.79153H11.125C10.7798 5.79153 10.5 5.51164 10.5 5.16638C10.5 4.82112 10.7798 4.54123 11.125 4.54123H14.25V1.41549C14.25 1.07024 14.5298 0.790347 14.875 0.790347Z" fill="#505F79"/>
<path fill-rule="evenodd" clip-rule="evenodd" d="M0.5 7.66697C0.5 7.32171 0.779822 7.04183 1.125 7.04183H4.875C5.22018 7.04183 5.5 7.32171 5.5 7.66697C5.5 8.01223 5.22018 8.29212 4.875 8.29212H1.75V11.4179C1.75 11.7631 1.47018 12.043 1.125 12.043C0.779822 12.043 0.5 11.7631 0.5 11.4179V7.66697Z" fill="#505F79"/>
<path fill-rule="evenodd" clip-rule="evenodd" d="M9.38583 1.61392C8.57448 1.37918 7.7169 1.35385 6.89311 1.54029C6.06932 1.72672 5.30617 2.11885 4.67487 2.68009C4.04358 3.24132 3.56471 3.95337 3.28295 4.74979C3.1678 5.07527 2.81066 5.24576 2.48525 5.13058C2.15985 5.0154 1.9894 4.65818 2.10455 4.3327C2.45675 3.33717 3.05534 2.44711 3.84446 1.74557C4.63358 1.04403 5.58751 0.553861 6.61725 0.320815C7.64699 0.0877693 8.71896 0.119437 9.73316 0.412862C10.7441 0.705355 11.6648 1.24844 12.4099 1.9917L15.303 4.71081C15.5545 4.94724 15.5668 5.34287 15.3305 5.59448C15.0941 5.84609 14.6986 5.8584 14.447 5.62197L11.547 2.89632C11.5423 2.89185 11.5376 2.8873 11.5329 2.88268C10.9359 2.28516 10.1972 1.84866 9.38583 1.61392ZM0.669531 7.2389C0.905901 6.98729 1.30144 6.97498 1.55299 7.2114L4.45299 9.93705C4.45775 9.94152 4.46244 9.94607 4.46705 9.95069C5.06414 10.5482 5.80282 10.9847 6.61417 11.2195C7.42552 11.4542 8.2831 11.4795 9.10689 11.2931C9.93068 11.1067 10.6938 10.7145 11.3251 10.1533C11.9564 9.59205 12.4353 8.88 12.7171 8.08358C12.8322 7.7581 13.1893 7.58762 13.5147 7.70279C13.8402 7.81797 14.0106 8.1752 13.8954 8.50068C13.5432 9.4962 12.9447 10.3863 12.1555 11.0878C11.3664 11.7893 10.4125 12.2795 9.38275 12.5126C8.35301 12.7456 7.28103 12.7139 6.26684 12.4205C5.25587 12.128 4.33517 11.5849 3.59007 10.8417L0.697016 8.12256C0.445467 7.88614 0.433161 7.4905 0.669531 7.2389Z" fill="#505F79"/>
</svg>
