<svg width="8" height="14" viewBox="0 0 8 14" fill="none" xmlns="http://www.w3.org/2000/svg">
<path d="M7.27394 0.252809L5.52329 0.25C3.5565 0.25 2.28547 1.55403 2.28547 3.57237V5.1042H0.525272C0.37317 5.1042 0.25 5.22751 0.25 5.37961V7.59907C0.25 7.75117 0.373311 7.87434 0.525272 7.87434H2.28547V13.4747C2.28547 13.6268 2.40864 13.75 2.56074 13.75H4.8573C5.0094 13.75 5.13257 13.6267 5.13257 13.4747V7.87434H7.19066C7.34276 7.87434 7.46593 7.75117 7.46593 7.59907L7.46677 5.37961C7.46677 5.30658 7.4377 5.23664 7.38616 5.18496C7.33461 5.13327 7.26439 5.1042 7.19136 5.1042H5.13257V3.80565C5.13257 3.18151 5.2813 2.86467 6.09434 2.86467L7.27366 2.86424C7.42562 2.86424 7.54879 2.74093 7.54879 2.58897V0.528081C7.54879 0.37626 7.42576 0.25309 7.27394 0.252809Z" fill="#0073FF"/>
</svg>
