<svg width="24" height="24" viewBox="0 0 24 24" fill="none" xmlns="http://www.w3.org/2000/svg">
<g id="Icons / Interface / FTX">
<g id="Group">
<path id="Vector" d="M6.78482 2.00132C12.5224 1.99956 18.2604 1.99956 23.9987 2.00132C24.0005 3.85593 24.0005 5.71022 23.9987 7.56419C18.261 7.56596 12.523 7.56596 6.78482 7.56419C6.78299 5.70959 6.78299 3.85529 6.78482 2.00132Z" fill="#02A6C2"/>
<path id="Vector_2" d="M0.00719988 9.6571C1.85829 9.6475 3.7097 9.6475 5.56143 9.6571C5.57103 11.5082 5.57103 13.3596 5.56143 15.2113C3.70978 15.2208 1.85837 15.2211 0.00719988 15.2118C-0.00239996 13.3604 -0.00239996 11.5088 0.00719988 9.6571Z" fill="#5FCADE"/>
<path id="Vector_3" d="M6.78913 9.65705C10.9304 9.64825 15.0714 9.64825 19.2122 9.65705C19.2209 11.5081 19.2209 13.3596 19.2122 15.2113C15.0709 15.2199 10.9299 15.2199 6.78913 15.2113C6.78049 13.3601 6.78049 11.5087 6.78913 9.65705Z" fill="#5FCADE"/>
<path id="Vector_4" d="M6.79429 17.3145C8.64226 17.2945 10.4899 17.2945 12.3372 17.3145C12.3564 19.1613 12.3567 21.0089 12.3381 22.8575C10.4901 22.8757 8.6425 22.8754 6.79525 22.8565C6.77605 21.0099 6.77573 19.1626 6.79429 17.3145Z" fill="#ABEBF4"/>
</g>
</g>
</svg>
