<svg width="24" height="25" viewBox="0 0 24 25" fill="none" xmlns="http://www.w3.org/2000/svg">
<g id="Icons / Interface / Gate">
<path id="Vector" d="M9.40378 11.8115L9.19549 11.6023C9.16048 11.5671 9.11578 11.543 9.06708 11.5332C9.01837 11.5234 8.96785 11.5283 8.92194 11.5473C8.87602 11.5663 8.83677 11.5984 8.80917 11.6398C8.78157 11.6811 8.76687 11.7296 8.76693 11.7793V14.7673C8.76698 14.8003 8.77354 14.8329 8.78622 14.8633C8.79889 14.8937 8.81745 14.9214 8.84081 14.9446C8.86418 14.9678 8.8919 14.9863 8.92239 14.9988C8.95288 15.0113 8.98554 15.0177 9.0185 15.0176H12.0069C12.0567 15.018 12.1055 15.0035 12.1471 14.9759C12.1886 14.9483 12.2209 14.909 12.2399 14.8629C12.2589 14.8168 12.2636 14.7661 12.2536 14.7173C12.2435 14.6685 12.2191 14.6238 12.1835 14.589C12.1368 14.542 12.1105 14.4785 12.1105 14.4122C12.1105 14.346 12.1368 14.2824 12.1835 14.2354L15.3626 11.0478C15.3858 11.0245 15.4043 10.9969 15.4168 10.9666C15.4294 10.9362 15.4359 10.9036 15.4359 10.8708C15.4359 10.8379 15.4294 10.8053 15.4168 10.775C15.4043 10.7446 15.3858 10.717 15.3626 10.6938L15.0729 10.4053C15.0374 10.3704 15.0132 10.3257 15.0033 10.2769C14.9933 10.2281 14.9982 10.1775 15.0172 10.1315C15.0362 10.0855 15.0685 10.0462 15.1099 10.0186C15.1514 9.99109 15.2001 9.97651 15.2499 9.97677H18.237C18.3034 9.97677 18.3672 10.0031 18.4143 10.05C18.4613 10.0969 18.4879 10.1606 18.4881 10.2271V13.215C18.488 13.2646 18.4731 13.3131 18.4455 13.3542C18.4179 13.3954 18.3787 13.4275 18.3328 13.4464C18.287 13.4653 18.2366 13.4703 18.188 13.4606C18.1393 13.4509 18.0946 13.4271 18.0596 13.392L17.8577 13.191C17.8349 13.1672 17.8075 13.1482 17.7771 13.1352C17.7468 13.1222 17.7141 13.1156 17.6811 13.1156C17.6481 13.1156 17.6155 13.1222 17.5851 13.1352C17.5548 13.1482 17.5274 13.1672 17.5046 13.191L12.1475 18.5481C12.1002 18.5947 12.0366 18.6208 11.9703 18.6208C11.9039 18.6208 11.8403 18.5947 11.793 18.5481L5.23596 11.991C5.21253 11.9678 5.19394 11.9402 5.18125 11.9097C5.16856 11.8793 5.16202 11.8466 5.16202 11.8136C5.16202 11.7806 5.16856 11.748 5.18125 11.7175C5.19394 11.6871 5.21253 11.6594 5.23596 11.6362L14.3143 2.5617C14.3609 2.51447 14.387 2.45081 14.387 2.38449C14.387 2.31817 14.3609 2.25451 14.3143 2.20728L12.1775 0.0730118C12.1303 0.0262442 12.0666 0 12.0003 0C11.9339 0 11.8702 0.0262442 11.823 0.0730118L0.0730118 11.8243C0.0262442 11.8714 0 11.9351 0 12.0015C0 12.0679 0.0262442 12.1316 0.0730118 12.1788L11.823 23.9288C11.8702 23.9755 11.9339 24.0018 12.0003 24.0018C12.0666 24.0018 12.1303 23.9755 12.1775 23.9288L23.9271 12.1788C23.9738 12.1318 24 12.0682 24 12.002C24 11.9357 23.9738 11.8722 23.9271 11.8252L17.0143 4.91239C16.9672 4.86565 16.9036 4.83942 16.8373 4.83942C16.771 4.83942 16.7073 4.86565 16.6603 4.91239L9.76035 11.8123C9.73712 11.8358 9.70948 11.8543 9.67903 11.867C9.64857 11.8797 9.61591 11.8863 9.58292 11.8863C9.54993 11.8863 9.51726 11.8797 9.48681 11.867C9.45636 11.8543 9.42872 11.8358 9.40549 11.8123L9.40378 11.8115Z" fill="#DE5959"/>
</g>
</svg>
