<svg width="14" height="14" viewBox="0 0 14 14" fill="none" xmlns="http://www.w3.org/2000/svg">
<circle cx="7" cy="7" r="7" fill="#C5CCD6"/>
<path fill-rule="evenodd" clip-rule="evenodd" d="M3.57723 3.57723C3.77656 3.3779 4.09974 3.3779 4.29907 3.57723L7.00065 6.27881L9.70223 3.57723C9.90156 3.3779 10.2247 3.3779 10.4241 3.57723C10.6234 3.77656 10.6234 4.09974 10.4241 4.29907L7.72249 7.00065L10.4241 9.70223C10.6234 9.90156 10.6234 10.2247 10.4241 10.4241C10.2247 10.6234 9.90156 10.6234 9.70223 10.4241L7.00065 7.72249L4.29907 10.4241C4.09974 10.6234 3.77656 10.6234 3.57723 10.4241C3.3779 10.2247 3.3779 9.90156 3.57723 9.70223L6.27881 7.00065L3.57723 4.29907C3.3779 4.09974 3.3779 3.77656 3.57723 3.57723Z" fill="white"/>
</svg>
