<svg width="18" height="12" viewBox="0 0 18 12" fill="none" xmlns="http://www.w3.org/2000/svg">
<path fill-rule="evenodd" clip-rule="evenodd" d="M5.6665 0.999959C5.6665 0.539722 6.0396 0.166626 6.49984 0.166626H16.4998C16.9601 0.166626 17.3332 0.539722 17.3332 0.999959C17.3332 1.4602 16.9601 1.83329 16.4998 1.83329H6.49984C6.0396 1.83329 5.6665 1.4602 5.6665 0.999959ZM0.666504 5.99996C0.666504 5.53972 1.0396 5.16663 1.49984 5.16663H16.4998C16.9601 5.16663 17.3332 5.53972 17.3332 5.99996C17.3332 6.4602 16.9601 6.83329 16.4998 6.83329H1.49984C1.0396 6.83329 0.666504 6.4602 0.666504 5.99996ZM5.6665 11C5.6665 10.5397 6.0396 10.1666 6.49984 10.1666H16.4998C16.9601 10.1666 17.3332 10.5397 17.3332 11C17.3332 11.4602 16.9601 11.8333 16.4998 11.8333H6.49984C6.0396 11.8333 5.6665 11.4602 5.6665 11Z" fill="#A7B2C2"/>
</svg>
