<svg width="16" height="16" viewBox="0 0 16 16" fill="none" xmlns="http://www.w3.org/2000/svg">
<path fill-rule="evenodd" clip-rule="evenodd" d="M8 1.86364C4.61098 1.86364 1.86364 4.61098 1.86364 8C1.86364 11.389 4.61098 14.1364 8 14.1364C11.389 14.1364 14.1364 11.389 14.1364 8C14.1364 4.61098 11.389 1.86364 8 1.86364ZM0.5 8C0.5 3.85786 3.85786 0.5 8 0.5C12.1421 0.5 15.5 3.85786 15.5 8C15.5 12.1421 12.1421 15.5 8 15.5C3.85786 15.5 0.5 12.1421 0.5 8ZM8 3.22727C8.37656 3.22727 8.68182 3.53253 8.68182 3.90909V7.57861L11.0322 8.7538C11.369 8.9222 11.5055 9.33175 11.3371 9.66855C11.1687 10.0054 10.7592 10.1419 10.4224 9.97347L7.69508 8.60984C7.46409 8.49434 7.31818 8.25825 7.31818 8V3.90909C7.31818 3.53253 7.62344 3.22727 8 3.22727Z" fill="#505F79"/>
</svg>
