<svg width="25" height="22" viewBox="0 0 25 22" fill="none" xmlns="http://www.w3.org/2000/svg">
<path d="M8.69885 4.59326L7.59156 8.90851L0 9.89277L8.69885 4.59326Z" fill="#57BAE5"/>
<path d="M10.7539 22L12.6404 14.1624L10.1934 13.1508L10.7539 22Z" fill="#005472"/>
<path d="M7.59163 8.90381L5.60033 13.0049L0.0228577 9.90629L7.59163 8.90381Z" fill="#34AFE4"/>
<path d="M10.7539 22L10.1934 13.1508L5.57745 12.9913L10.7539 22Z" fill="#0076A7"/>
<path d="M7.59161 8.90381L10.2163 13.1461L5.60031 12.9912L7.59161 8.90381Z" fill="#009DE2"/>
<path d="M8.69891 4.59326L14.9827 5.38158L7.59161 8.90851L8.69891 4.59326Z" fill="#7ACDF2"/>
<path d="M21.8543 2.62927L17.9036 7.22248L18.1816 2.97559L21.8543 2.62927Z" fill="#7ACDF2"/>
<path d="M24.0461 0L21.8543 2.62925L23.5676 2.83886L24.0461 0Z" fill="#7ACDF2"/>
<path d="M19.7261 5.0125L23.5675 2.83437L21.8541 2.62476L19.7261 5.0125Z" fill="#00ABE7"/>
<path d="M12.6404 14.1624L12.8272 8.89026L10.1934 13.1508L12.6404 14.1624Z" fill="#0076A7"/>
<path d="M12.8273 8.89026L10.1935 13.1508L7.59158 8.90849L12.8273 8.89026Z" fill="#008DBE"/>
<path d="M14.9826 5.38159L12.8273 8.89029L7.59158 8.90852L14.9826 5.38159Z" fill="#57BAE5"/>
<path d="M12.8273 8.89026L12.6404 14.1624L17.4615 19.0928L12.8273 8.89026Z" fill="#00698D"/>
<path d="M19.9814 16.3359L17.4342 10.0248L17.4615 19.0973L19.9814 16.3359Z" fill="#09A1CB"/>
<path d="M17.9035 7.22241L17.4342 10.0248L12.8273 8.89018L17.9035 7.22241Z" fill="#09A1CB"/>
<path d="M20.2366 11.0228L17.4342 10.0249L17.8898 7.22705L20.2366 11.0228Z" fill="#8BDAFF"/>
<path d="M21.2619 16.1628L18.2088 11.2688H19.9541L21.2619 16.1628Z" fill="#7ACDF2"/>
<path d="M15.5567 4.33806L17.9035 7.22248L18.1814 2.97559L15.5567 4.33806Z" fill="#57BAE5"/>
<path d="M17.4342 10.0249L12.8273 8.89026L17.4615 19.0928L17.4342 10.0249Z" fill="#008DBE"/>
<path d="M19.9814 16.3359L20.9976 16.9055L17.4707 19.0928L19.9814 16.3359Z" fill="#0076A7"/>
<path d="M21.2618 16.1035L17.4342 10.0248L19.9814 16.3404L21.2618 16.1035Z" fill="#57BAE5"/>
<path d="M15.5567 4.33801L12.8227 8.89477L17.8989 7.227L15.5567 4.33801Z" fill="#7ACDF2"/>
</svg>
