<svg width="24" height="24" viewBox="0 0 24 24" fill="none" xmlns="http://www.w3.org/2000/svg">
<g id="Icons / Interface / Huobi">
<rect id="Rectangle 451" width="24" height="24" rx="2" fill="#EBEFF5"/>
<g id="Group 217">
<path id="Vector" d="M13.5062 8.69529C13.5062 6.23109 12.3057 4.10887 11.3913 3.42005C11.3913 3.42005 11.3209 3.38125 11.3282 3.48069C11.253 8.24174 8.82036 9.53205 7.48397 11.2686C4.39886 15.2802 7.26568 19.6775 10.1907 20.49C11.8206 20.946 9.81235 19.6848 9.55283 17.0241C9.2351 13.8129 13.5062 11.3584 13.5062 8.69529Z" fill="#1B2143"/>
<path id="Vector_2" d="M14.9081 10.3179C14.8887 10.3058 14.862 10.2961 14.8451 10.3276C14.7941 10.9267 14.1829 12.2073 13.4068 13.386C10.7752 17.3782 12.2741 19.304 13.1182 20.3397C13.6081 20.9387 13.1182 20.3397 14.3406 19.726C15.8516 18.8092 16.8315 17.223 16.977 15.4622C17.2171 12.6245 15.5145 10.837 14.9081 10.3179Z" fill="#2CA6E0"/>
</g>
</g>
</svg>
