<svg width="24" height="24" viewBox="0 0 24 24" fill="none" xmlns="http://www.w3.org/2000/svg">
<g id="Icons / Interface / Kraken">
<path id="x23 0da8ffff" d="M11.2461 4.02205C13.3233 3.90119 15.4396 4.27886 17.3102 5.11478C20.0631 6.3334 22.2576 8.539 23.2962 11.1424C23.7541 12.2905 23.9998 13.5092 23.9998 14.7278V19.2598C23.9998 19.4462 24.0054 19.6325 23.9551 19.8138C23.8435 20.272 23.4805 20.6749 23.0059 20.8662C22.6764 21.0072 22.2967 21.0223 21.9393 20.972C21.1743 20.8461 20.5769 20.1965 20.5713 19.4965C20.5657 18.0916 20.5713 16.6866 20.5713 15.2767C20.5824 14.8789 20.588 14.4508 20.3479 14.0983C19.957 13.4487 19.0189 13.1416 18.2595 13.4185C17.6174 13.625 17.1539 14.2091 17.1483 14.8235C17.1427 16.2536 17.1483 17.6787 17.1483 19.1037C17.1483 19.3706 17.1651 19.6426 17.0757 19.8994C16.9138 20.4029 16.4503 20.8108 15.8919 20.9468C15.1604 21.1281 14.3172 20.836 13.9487 20.2267C13.6974 19.8591 13.7142 19.4159 13.7198 19.003C13.7142 17.588 13.7253 16.168 13.7142 14.753C13.6974 14.0329 13.0441 13.3833 12.2512 13.2926C11.7375 13.2221 11.1958 13.3782 10.8217 13.7056C10.4867 13.9926 10.2912 14.4055 10.2912 14.8235V18.9527C10.2856 19.3001 10.3303 19.6577 10.1851 19.985C9.95618 20.5741 9.29728 21.0072 8.59928 20.9921C7.88454 21.0273 7.19213 20.5842 6.96319 19.9799C6.83475 19.6828 6.86267 19.3606 6.86267 19.0483C6.86267 17.6233 6.86826 16.1982 6.86267 14.7731C6.85709 14.0681 6.24844 13.4236 5.48344 13.2977C4.78544 13.1617 4.01486 13.4789 3.66865 14.0429C3.51789 14.2796 3.43971 14.5515 3.43971 14.8184V19.4462C3.4453 19.8943 3.21636 20.3425 2.83106 20.6295C2.25033 21.0878 1.31223 21.113 0.703578 20.69C0.262446 20.418 0 19.9497 0 19.4663V14.7781C0.00558395 13.0056 0.502555 11.2381 1.44066 9.67705C2.20566 8.40304 3.26103 7.27002 4.523 6.36361C6.42154 4.98385 8.80589 4.15297 11.2461 4.02205Z" fill="#0DA8FF"/>
</g>
</svg>
