<svg width="24" height="24" viewBox="0 0 24 24" fill="none" xmlns="http://www.w3.org/2000/svg">
<g id="Icons / Interface / KuCoin">
<g id="Vector">
<path d="M3.04005 2.02663C4.16571 2.02663 5.08009 2.94102 5.08009 4.06668V19.9195C5.08009 21.0451 4.16571 21.9595 3.04005 21.9595C1.91438 21.9595 1 21.0451 1 19.9195V4.06668C1.00346 2.94102 1.91438 2.02663 3.04005 2.02663Z" fill="#0097E8"/>
<path d="M16.212 0.793599C17.0052 1.59368 16.9983 2.8856 16.1982 3.67529L4.9277 14.828C4.12761 15.6212 2.8357 15.6142 2.046 14.8142C1.25284 14.0141 1.25977 12.7222 2.05985 11.9325L13.3303 0.783208C14.1304 -0.0134148 15.4223 -0.00648752 16.212 0.793599Z" fill="#0097E8"/>
<path d="M16.212 23.1787C17.0052 22.3786 16.9983 21.0867 16.1982 20.297L4.9277 9.14775C4.12761 8.35459 2.8357 8.36151 2.046 9.1616C1.25284 9.96169 1.25977 11.2536 2.05985 12.0433L13.3303 23.1925C14.1304 23.9892 15.4223 23.9822 16.212 23.1787Z" fill="#0097E8"/>
<path d="M22.3599 14.6202C23.153 15.4203 23.1496 16.7122 22.353 17.5054L16.4233 23.4073C15.6232 24.2004 14.3313 24.197 13.5381 23.4004C12.745 22.6003 12.7485 21.3084 13.5451 20.5152L19.4747 14.6133C20.2713 13.8201 21.5633 13.8236 22.3599 14.6202Z" fill="#0097E8"/>
<path d="M22.3599 9.37981C23.153 8.57972 23.1496 7.2878 22.353 6.49465L16.4233 0.592711C15.6232 -0.200448 14.3313 -0.196985 13.5381 0.599638C12.745 1.39972 12.7485 2.69164 13.5451 3.4848L19.4747 9.38673C20.2748 10.1799 21.5667 10.1799 22.3599 9.37981Z" fill="#0097E8"/>
<path d="M14.9963 14.0591C16.1326 14.0591 17.0537 13.138 17.0537 12.0017C17.0537 10.8655 16.1326 9.94437 14.9963 9.94437C13.8601 9.94437 12.9389 10.8655 12.9389 12.0017C12.9389 13.138 13.8601 14.0591 14.9963 14.0591Z" fill="#0097E8"/>
</g>
</g>
</svg>
