<svg width="32" height="30" viewBox="0 0 32 30" fill="none" xmlns="http://www.w3.org/2000/svg">
<path fill-rule="evenodd" clip-rule="evenodd" d="M14.7032 30C15.8612 30 16.8 29.0406 16.8 27.8571C16.8 26.6737 15.8612 25.7143 14.7032 25.7143C13.5452 25.7143 12.6064 24.7549 12.6064 23.5714C12.6064 22.388 11.6676 21.4286 10.5096 21.4286C9.35156 21.4286 8.41279 20.4692 8.41279 19.2857C8.41279 18.1022 9.35156 17.1429 10.5096 17.1429C11.6676 17.1429 12.6064 16.1835 12.6064 15C12.6064 13.8165 11.6676 12.8571 10.5096 12.8571C9.35156 12.8571 8.41279 11.8978 8.41279 10.7143C8.41279 9.53082 9.35156 8.57143 10.5096 8.57143C11.6676 8.57143 12.6064 7.61204 12.6064 6.42857C12.6064 5.2451 13.5452 4.28571 14.7032 4.28571C15.8612 4.28571 16.8 3.32632 16.8 2.14286C16.8 0.95939 15.8612 0 14.7032 0C13.5452 0 12.6064 0.95939 12.6064 2.14286C12.6064 3.32632 11.6676 4.28571 10.5096 4.28571C9.35156 4.28571 8.41279 5.2451 8.41279 6.42857C8.41279 7.61204 7.47401 8.57143 6.31598 8.57143C5.15795 8.57143 4.21918 9.53082 4.21918 10.7143C4.21918 11.8978 5.15795 12.8571 6.31598 12.8571C7.47401 12.8571 8.41279 13.8165 8.41279 15C8.41279 16.1835 7.47401 17.1429 6.31598 17.1429C5.15795 17.1429 4.21918 18.1022 4.21918 19.2857C4.21918 20.4692 5.15795 21.4286 6.31598 21.4286C7.47401 21.4286 8.41279 22.388 8.41279 23.5714C8.41279 24.7549 9.35156 25.7143 10.5096 25.7143C11.6676 25.7143 12.6064 26.6737 12.6064 27.8571C12.6064 29.0406 13.5452 30 14.7032 30ZM0 15C0 16.1896 0.944495 17.154 2.10959 17.154C3.27468 17.154 4.21918 16.1896 4.21918 15C4.21918 13.8104 3.27468 12.846 2.10959 12.846C0.944495 12.846 0 13.8104 0 15Z" fill="url(#paint0_linear)"/>
<path fill-rule="evenodd" clip-rule="evenodd" d="M22.8002 24.24C22.8002 25.433 21.7257 26.4 20.4002 26.4C19.0747 26.4 18.0002 25.433 18.0002 24.24C18.0002 23.0471 16.9257 22.08 15.6002 22.08C14.2747 22.08 13.2002 21.113 13.2002 19.92C13.2002 18.7271 14.2747 17.76 15.6002 17.76C16.9257 17.76 18.0002 16.793 18.0002 15.6C18.0002 14.4071 16.9257 13.44 15.6002 13.44C14.2747 13.44 13.2002 12.473 13.2002 11.28C13.2002 10.0871 14.2747 9.12005 15.6002 9.12005C16.9257 9.12005 18.0002 8.15298 18.0002 6.96005C18.0002 5.76711 19.0747 4.80005 20.4002 4.80005C21.7257 4.80005 22.8002 5.76711 22.8002 6.96005C22.8002 8.15298 21.7257 9.12005 20.4002 9.12005C19.0747 9.12005 18.0002 10.0871 18.0002 11.28C18.0002 12.473 19.0747 13.44 20.4002 13.44C21.7257 13.44 22.8002 14.4071 22.8002 15.6C22.8002 16.793 21.7257 17.76 20.4002 17.76C19.0747 17.76 18.0002 18.7271 18.0002 19.92C18.0002 21.113 19.0747 22.08 20.4002 22.08C21.7257 22.08 22.8002 23.0471 22.8002 24.24Z" fill="url(#paint1_linear)"/>
<path fill-rule="evenodd" clip-rule="evenodd" d="M21.6001 9.37995C21.6001 10.5839 22.6746 11.56 24.0001 11.56C25.3256 11.56 26.4001 12.536 26.4001 13.74C26.4001 14.9439 27.4746 15.92 28.8001 15.92C30.1256 15.92 31.2001 14.9439 31.2001 13.74C31.2001 12.536 30.1256 11.56 28.8001 11.56C27.4746 11.56 26.4001 10.5839 26.4001 9.37995C26.4001 8.17597 25.3256 7.19995 24.0001 7.19995C22.6746 7.19995 21.6001 8.17597 21.6001 9.37995ZM21.6001 18.2C21.6001 19.415 22.6845 20.4 24.0221 20.4C25.3598 20.4 26.4441 19.415 26.4441 18.2C26.4441 16.9849 25.3598 16 24.0221 16C22.6845 16 21.6001 16.9849 21.6001 18.2Z" fill="url(#paint2_linear)"/>
<defs>
<linearGradient id="paint0_linear" x1="-3.97648" y1="21.843" x2="15.9442" y2="27.9094" gradientUnits="userSpaceOnUse">
<stop stop-color="#FEDE00"/>
<stop offset="1" stop-color="#FF5121"/>
</linearGradient>
<linearGradient id="paint1_linear" x1="22.0313" y1="24.5884" x2="16.1898" y2="5.51521" gradientUnits="userSpaceOnUse">
<stop stop-color="#0072FF"/>
<stop offset="1" stop-color="#00F0FE"/>
</linearGradient>
<linearGradient id="paint2_linear" x1="14.7962" y1="19.7668" x2="25.015" y2="23.8589" gradientUnits="userSpaceOnUse">
<stop stop-color="#A6E50F"/>
<stop offset="1" stop-color="#00D0E3"/>
</linearGradient>
</defs>
</svg>
