<svg width="85" height="40" viewBox="0 0 85 40" fill="none" xmlns="http://www.w3.org/2000/svg">
<path fill-rule="evenodd" clip-rule="evenodd" d="M19.5277 39.8438C21.0657 39.8438 22.3125 38.5696 22.3125 36.9978C22.3125 35.426 21.0657 34.1518 19.5277 34.1518C17.9897 34.1518 16.7429 32.8776 16.7429 31.3058C16.7429 29.734 15.4961 28.4598 13.9581 28.4598C12.4201 28.4598 11.1733 27.1856 11.1733 25.6138C11.1733 24.042 12.4201 22.7679 13.9581 22.7679C15.4961 22.7679 16.7429 21.4937 16.7429 19.9219C16.7429 18.3501 15.4961 17.0759 13.9581 17.0759C12.4201 17.0759 11.1733 15.8017 11.1733 14.2299C11.1733 12.6581 12.4201 11.3839 13.9581 11.3839C15.4961 11.3839 16.7429 10.1097 16.7429 8.53795C16.7429 6.96615 17.9897 5.69196 19.5277 5.69196C21.0657 5.69196 22.3125 4.41777 22.3125 2.84598C22.3125 1.27419 21.0657 0 19.5277 0C17.9897 0 16.7429 1.27419 16.7429 2.84598C16.7429 4.41777 15.4961 5.69196 13.9581 5.69196C12.4201 5.69196 11.1733 6.96615 11.1733 8.53795C11.1733 10.1097 9.92645 11.3839 8.38843 11.3839C6.85042 11.3839 5.60362 12.6581 5.60362 14.2299C5.60362 15.8017 6.85042 17.0759 8.38843 17.0759C9.92645 17.0759 11.1733 18.3501 11.1733 19.9219C11.1733 21.4937 9.92645 22.7679 8.38843 22.7679C6.85042 22.7679 5.60362 24.042 5.60362 25.6138C5.60362 27.1856 6.85042 28.4598 8.38843 28.4598C9.92645 28.4598 11.1733 29.734 11.1733 31.3058C11.1733 32.8776 12.4201 34.1518 13.9581 34.1518C15.4961 34.1518 16.7429 35.426 16.7429 36.9978C16.7429 38.5696 17.9897 39.8438 19.5277 39.8438ZM0 19.9219C0 21.5019 1.25441 22.7827 2.8018 22.7827C4.34919 22.7827 5.6036 21.5019 5.6036 19.9219C5.6036 18.3419 4.34919 17.061 2.8018 17.061C1.25441 17.061 0 18.3419 0 19.9219Z" fill="url(#paint0_linear)"/>
<path fill-rule="evenodd" clip-rule="evenodd" d="M30.2813 32.1938C30.2813 33.7781 28.8542 35.0625 27.0938 35.0625C25.3333 35.0625 23.9062 33.7781 23.9062 32.1938C23.9062 30.6094 22.4792 29.325 20.7188 29.325C18.9583 29.325 17.5312 28.0406 17.5312 26.4562C17.5312 24.8719 18.9583 23.5875 20.7188 23.5875C22.4792 23.5875 23.9062 22.3031 23.9062 20.7188C23.9062 19.1344 22.4792 17.85 20.7188 17.85C18.9583 17.85 17.5312 16.5656 17.5312 14.9812C17.5312 13.3969 18.9583 12.1125 20.7188 12.1125C22.4792 12.1125 23.9062 10.8281 23.9062 9.24375C23.9062 7.65938 25.3333 6.375 27.0938 6.375C28.8542 6.375 30.2813 7.65938 30.2813 9.24375C30.2813 10.8281 28.8542 12.1125 27.0938 12.1125C25.3333 12.1125 23.9062 13.3969 23.9062 14.9812C23.9062 16.5656 25.3333 17.85 27.0938 17.85C28.8542 17.85 30.2813 19.1344 30.2813 20.7188C30.2813 22.3031 28.8542 23.5875 27.0938 23.5875C25.3333 23.5875 23.9062 24.8719 23.9062 26.4562C23.9062 28.0406 25.3333 29.325 27.0938 29.325C28.8542 29.325 30.2813 30.6094 30.2813 32.1938Z" fill="url(#paint1_linear)"/>
<path fill-rule="evenodd" clip-rule="evenodd" d="M28.6875 12.4578C28.6875 14.0568 30.1146 15.3531 31.875 15.3531C33.6354 15.3531 35.0625 16.6494 35.0625 18.2484C35.0625 19.8475 36.4896 21.1438 38.25 21.1438C40.0104 21.1438 41.4375 19.8475 41.4375 18.2484C41.4375 16.6494 40.0104 15.3531 38.25 15.3531C36.4896 15.3531 35.0625 14.0568 35.0625 12.4578C35.0625 10.8588 33.6354 9.5625 31.875 9.5625C30.1146 9.5625 28.6875 10.8588 28.6875 12.4578ZM28.6875 24.1719C28.6875 25.7856 30.1277 27.0938 31.9042 27.0938C33.6808 27.0938 35.121 25.7856 35.121 24.1719C35.121 22.5582 33.6808 21.25 31.9042 21.25C30.1277 21.25 28.6875 22.5582 28.6875 24.1719Z" fill="url(#paint2_linear)"/>
<path fill-rule="evenodd" clip-rule="evenodd" d="M58.0898 29.4561C58.0898 30.969 59.2248 31.7805 60.7045 31.7805C61.7245 31.7805 62.4572 31.4092 62.9887 30.8452V31.6155H65.6895V27.3379C65.6895 26.2926 65.4453 25.5224 64.8563 24.9722C64.2386 24.3808 63.2904 24.0645 61.8969 24.0645C60.5608 24.0645 59.627 24.2983 58.7507 24.6421L59.311 26.4852C60.0005 26.2239 60.6327 26.0726 61.4515 26.0726C62.5002 26.0726 63.0031 26.5127 63.0031 27.2829V27.4067C62.5577 27.2554 61.8538 27.1179 61.1355 27.1179C59.311 27.1179 58.0898 27.9156 58.0898 29.4561ZM63.0318 28.9197C63.0318 29.6624 62.4715 30.1438 61.6814 30.1438C61.1211 30.1438 60.7188 29.8412 60.7188 29.3323C60.7188 28.7546 61.1786 28.3833 61.9687 28.3833C62.371 28.3833 62.7588 28.4658 63.0318 28.5758V28.9197Z" fill="#241C31"/>
<path fill-rule="evenodd" clip-rule="evenodd" d="M70.8312 31.7945C68.4896 31.7945 66.7656 30.034 66.7656 27.9021C66.7656 25.7977 68.4752 24.0234 70.9318 24.0234C72.5265 24.0234 73.5895 24.6836 74.2504 25.6877L72.4259 26.9531C72.0524 26.4579 71.607 26.2241 71.018 26.2241C70.0267 26.2241 69.4234 26.9668 69.4234 27.9021C69.4234 28.8649 70.0555 29.5939 70.9749 29.5939C71.6214 29.5939 72.0093 29.2913 72.4403 28.8099L74.2935 30.089C73.5752 31.1068 72.5408 31.7945 70.8312 31.7945Z" fill="#241C31"/>
<path fill-rule="evenodd" clip-rule="evenodd" d="M74.9414 27.9022C74.9414 30.2404 76.6653 31.7946 79.1076 31.7946C80.6591 31.7946 81.7366 31.1894 82.4836 30.2816L80.9752 29.085C80.4149 29.6077 79.8977 29.8415 79.2513 29.8415C78.4037 29.8415 77.7859 29.4289 77.5704 28.6174H82.771C82.7853 28.4386 82.7853 28.246 82.7853 28.081C82.7853 25.8941 81.5498 24.0098 78.8634 24.0098C76.5648 24.0098 74.9414 25.729 74.9414 27.9022ZM78.8777 25.9353C79.6248 25.9353 80.1276 26.458 80.2281 27.2832H77.5273C77.671 26.4717 78.1594 25.9353 78.8777 25.9353Z" fill="#241C31"/>
<path fill-rule="evenodd" clip-rule="evenodd" d="M44.5352 21.9883V29.5249C44.5352 30.6799 45.5131 31.6162 46.7195 31.6162H47.3222V28.8653H48.7013C51.201 28.8653 53.0256 27.6687 53.0256 25.3993C53.0256 23.2399 51.3878 21.9883 48.845 21.9883H44.5352ZM48.6438 26.7747H47.3222V24.2302H48.6295C49.6351 24.2302 50.2385 24.6703 50.2385 25.4956C50.2385 26.2796 49.6351 26.7747 48.6438 26.7747Z" fill="#241C31"/>
<path fill-rule="evenodd" clip-rule="evenodd" d="M54.1055 29.5254V21.5762H54.6507C55.8571 21.5762 56.835 22.5125 56.835 23.6674V31.6167H56.2898C55.0834 31.6167 54.1055 30.6804 54.1055 29.5254Z" fill="#241C31"/>
<path fill-rule="evenodd" clip-rule="evenodd" d="M44.5481 16.3433V11.1448H41.5312V10.8979C41.5312 9.74293 42.5092 8.80664 43.7156 8.80664H50.3521V9.05357C50.3521 10.2085 49.3741 11.1448 48.1677 11.1448H47.3352V18.4345H46.7325C45.5261 18.4345 44.5481 17.4982 44.5481 16.3433Z" fill="#241C31"/>
<path fill-rule="evenodd" clip-rule="evenodd" d="M49.5938 14.7205C49.5938 16.8662 51.3895 18.613 53.8749 18.613C56.3746 18.613 58.1847 16.8387 58.1847 14.7205C58.1847 12.5749 56.3889 10.8281 53.9036 10.8281C51.4039 10.8281 49.5938 12.6024 49.5938 14.7205ZM55.527 14.7206C55.527 15.6421 54.8949 16.3986 53.9036 16.3986C52.9411 16.3986 52.2515 15.6283 52.2515 14.7206C52.2515 13.799 52.8836 13.0426 53.8749 13.0426C54.8374 13.0426 55.527 13.8128 55.527 14.7206Z" fill="#241C31"/>
<path fill-rule="evenodd" clip-rule="evenodd" d="M67.6836 14.7205C67.6836 17.0587 69.4075 18.613 71.8498 18.613C73.4013 18.613 74.4788 18.0078 75.2258 17.1L73.7174 15.9034C73.1571 16.4261 72.6399 16.6599 71.9934 16.6599C71.1458 16.6599 70.5281 16.2472 70.3126 15.4358H75.5131C75.5275 15.257 75.5275 15.0644 75.5275 14.8993C75.5275 12.7124 74.292 10.8281 71.6056 10.8281C69.307 10.8281 67.6836 12.5474 67.6836 14.7205ZM71.6199 12.7537C72.3669 12.7537 72.8698 13.2764 72.9703 14.1016H70.2695C70.4132 13.2901 70.9016 12.7537 71.6199 12.7537Z" fill="#241C31"/>
<path fill-rule="evenodd" clip-rule="evenodd" d="M76.6914 16.3429V10.9932H79.421V12.0385C79.9238 11.4196 80.6421 10.8281 81.7483 10.8281C83.4004 10.8281 84.3917 11.8734 84.3917 13.5652V18.4342H83.8464C82.6401 18.4342 81.6621 17.4979 81.6621 16.3429V14.4042C81.6621 13.5927 81.2167 13.1526 80.5703 13.1526C79.9094 13.1526 79.421 13.5927 79.421 14.4042V18.4342H78.8757C77.6694 18.4342 76.6914 17.4979 76.6914 16.3429Z" fill="#241C31"/>
<path fill-rule="evenodd" clip-rule="evenodd" d="M59.3359 18.435V8.39453H59.8812C61.0876 8.39453 62.0655 9.33082 62.0655 10.4858V13.4836L64.1773 10.9941H67.2661L64.5652 13.9787L67.3379 18.435H65.5802C64.8086 18.435 64.0942 18.0453 63.7009 17.4096L62.7694 15.9043L62.0655 16.6883V18.435H59.3359Z" fill="#241C31"/>
<mask id="mask0" mask-type="alpha" maskUnits="userSpaceOnUse" x="59" y="8" width="9" height="11">
<path fill-rule="evenodd" clip-rule="evenodd" d="M59.3359 18.435V8.39453H59.8812C61.0876 8.39453 62.0655 9.33082 62.0655 10.4858V13.4836L64.1773 10.9941H67.2661L64.5652 13.9787L67.3379 18.435H65.5802C64.8086 18.435 64.0942 18.0453 63.7009 17.4096L62.7694 15.9043L62.0655 16.6883V18.435H59.3359Z" fill="white"/>
</mask>
<g mask="url(#mask0)">
<path fill-rule="evenodd" clip-rule="evenodd" d="M64.5681 13.9824L62.7773 15.9036L64.3385 18.4411H67.3449L64.5681 13.9824Z" fill="#0090FF"/>
</g>
<defs>
<linearGradient id="paint0_linear" x1="-5.28126" y1="29.0102" x2="21.1759" y2="37.0672" gradientUnits="userSpaceOnUse">
<stop stop-color="#FEDE00"/>
<stop offset="1" stop-color="#FF5121"/>
</linearGradient>
<linearGradient id="paint1_linear" x1="29.26" y1="32.6563" x2="21.5018" y2="7.32483" gradientUnits="userSpaceOnUse">
<stop stop-color="#0072FF"/>
<stop offset="1" stop-color="#00F0FE"/>
</linearGradient>
<linearGradient id="paint2_linear" x1="19.651" y1="26.2529" x2="33.2229" y2="31.6876" gradientUnits="userSpaceOnUse">
<stop stop-color="#A6E50F"/>
<stop offset="1" stop-color="#00D0E3"/>
</linearGradient>
</defs>
</svg>
