<svg width="18" height="18" viewBox="0 0 18 18" fill="none" xmlns="http://www.w3.org/2000/svg">
<path fill-rule="evenodd" clip-rule="evenodd" d="M3.16797 2.33268C2.94695 2.33268 2.73499 2.42048 2.57871 2.57676C2.42243 2.73304 2.33464 2.945 2.33464 3.16602V14.8327C2.33464 15.0537 2.42243 15.2657 2.57871 15.4219C2.73499 15.5782 2.94696 15.666 3.16797 15.666H6.5013C6.96154 15.666 7.33464 16.0391 7.33464 16.4993C7.33464 16.9596 6.96154 17.3327 6.5013 17.3327H3.16797C2.50493 17.3327 1.86904 17.0693 1.4002 16.6005C0.931361 16.1316 0.667969 15.4957 0.667969 14.8327V3.16602C0.667969 2.50297 0.931361 1.86709 1.4002 1.39825C1.86904 0.929408 2.50493 0.666016 3.16797 0.666016H6.5013C6.96154 0.666016 7.33464 1.03911 7.33464 1.49935C7.33464 1.95959 6.96154 2.33268 6.5013 2.33268H3.16797ZM11.7454 4.24343C12.0708 3.91799 12.5985 3.91799 12.9239 4.24343L17.0906 8.41009C17.416 8.73553 17.416 9.26317 17.0906 9.5886L12.9239 13.7553C12.5985 14.0807 12.0708 14.0807 11.7454 13.7553C11.4199 13.4298 11.4199 12.9022 11.7454 12.5768L14.4895 9.83268H6.5013C6.04107 9.83268 5.66797 9.45959 5.66797 8.99935C5.66797 8.53911 6.04107 8.16602 6.5013 8.16602H14.4895L11.7454 5.42194C11.4199 5.0965 11.4199 4.56886 11.7454 4.24343Z" fill="#505F79"/>
</svg>
