<svg width="12" height="14" viewBox="0 0 12 14" fill="none" xmlns="http://www.w3.org/2000/svg">
<path fill-rule="evenodd" clip-rule="evenodd" d="M6 1.66665C4.89543 1.66665 4 2.56208 4 3.66665C4 4.77122 4.89543 5.66665 6 5.66665C7.10457 5.66665 8 4.77122 8 3.66665C8 2.56208 7.10457 1.66665 6 1.66665ZM2.66667 3.66665C2.66667 1.8257 4.15905 0.333313 6 0.333313C7.84095 0.333313 9.33333 1.8257 9.33333 3.66665C9.33333 5.5076 7.84095 6.99998 6 6.99998C4.15905 6.99998 2.66667 5.5076 2.66667 3.66665ZM0.976311 9.30962C1.60143 8.6845 2.44928 8.33331 3.33333 8.33331H8.66667C9.55072 8.33331 10.3986 8.6845 11.0237 9.30962C11.6488 9.93475 12 10.7826 12 11.6666V13C12 13.3682 11.7015 13.6666 11.3333 13.6666C10.9651 13.6666 10.6667 13.3682 10.6667 13V11.6666C10.6667 11.1362 10.456 10.6275 10.0809 10.2524C9.70581 9.87736 9.1971 9.66665 8.66667 9.66665H3.33333C2.8029 9.66665 2.29419 9.87736 1.91912 10.2524C1.54405 10.6275 1.33333 11.1362 1.33333 11.6666V13C1.33333 13.3682 1.03486 13.6666 0.666667 13.6666C0.298477 13.6666 0 13.3682 0 13V11.6666C0 10.7826 0.351189 9.93475 0.976311 9.30962Z" fill="#505F79"/>
</svg>
