<svg width="16" height="10" viewBox="0 0 16 10" fill="none" xmlns="http://www.w3.org/2000/svg">
<path d="M10.1202 1.07031H5.8125V8.93142H10.1202V1.07031Z" fill="#FF5F00"/>
<path d="M6.08547 5C6.08547 3.40278 6.82393 1.98611 7.95897 1.06945C7.12478 0.402779 6.07179 0 4.92308 0C2.20171 0 0 2.23611 0 5C0 7.76389 2.20171 10 4.92308 10C6.07179 10 7.12478 9.59723 7.95897 8.93056C6.82393 8.02778 6.08547 6.59722 6.08547 5Z" fill="#EB001B"/>
<path d="M15.9316 5C15.9316 7.76389 13.7299 10 11.0086 10C9.85984 10 8.80684 9.59723 7.97266 8.93056C9.12137 8.01389 9.84616 6.59722 9.84616 5C9.84616 3.40278 9.1077 1.98611 7.97266 1.06945C8.80684 0.402779 9.85984 0 11.0086 0C13.7299 0 15.9316 2.25 15.9316 5Z" fill="#F79E1B"/>
</svg>
