<svg width="24" height="24" viewBox="0 0 24 24" fill="none" xmlns="http://www.w3.org/2000/svg">
<g id="Icons / Interface / okex">
<g id="Group">
<path id="Vector" d="M10.6373 10.7084C11.4793 10.9163 12.3586 10.9163 13.2006 10.7084C13.4357 9.74361 13.9283 8.86214 14.6251 8.15964C15.3219 7.45713 16.1961 6.96041 17.1531 6.72337C17.347 5.92366 17.3581 5.08998 17.1856 4.28529C17.0132 3.48061 16.6615 2.72597 16.1574 2.07838C15.6532 1.4308 15.0096 0.9072 14.2753 0.547147C13.541 0.187093 12.7352 0 11.9186 0C11.1021 0 10.2962 0.187093 9.56192 0.547147C8.82761 0.9072 8.18406 1.4308 7.67988 2.07838C7.17571 2.72597 6.8241 3.48061 6.65161 4.28529C6.47911 5.08998 6.49026 5.92366 6.68419 6.72337C7.64122 6.96032 8.51561 7.45699 9.21248 8.1595C9.90936 8.86201 10.4021 9.74353 10.6373 10.7084Z" fill="#7ABDF7"/>
<path id="Vector_2" d="M13.2006 13.2916C12.3586 13.0837 11.4793 13.0837 10.6373 13.2916C10.402 14.2563 9.90928 15.1377 9.21254 15.8401C8.5158 16.5426 7.64163 17.0394 6.6848 17.2766C6.49087 18.0763 6.47972 18.91 6.65222 19.7147C6.82471 20.5194 7.17632 21.274 7.6805 21.9216C8.18467 22.5692 8.82822 23.0928 9.56253 23.4528C10.2968 23.8129 11.1027 24 11.9192 24C12.7358 24 13.5416 23.8129 14.2759 23.4528C15.0103 23.0928 15.6538 22.5692 16.158 21.9216C16.6621 21.274 17.0138 20.5194 17.1863 19.7147C17.3587 18.91 17.3476 18.0763 17.1537 17.2766C16.1966 17.0397 15.3223 16.543 14.6254 15.8405C13.9285 15.138 13.4357 14.2565 13.2006 13.2916Z" fill="#0D74F5"/>
<path id="Vector_3" d="M18.4342 6.56699C18.0025 6.56694 17.5724 6.61923 17.1532 6.72275C16.9181 7.68742 16.4255 8.56878 15.7289 9.27118C15.0322 9.97359 14.1581 10.4702 13.2013 10.7072C12.9951 11.5561 12.9951 12.4427 13.2013 13.2916C14.1581 13.5287 15.0322 14.0255 15.7289 14.728C16.4255 15.4305 16.9181 16.3119 17.1532 17.2766C17.8933 17.4589 18.6634 17.4808 19.4125 17.341C20.1617 17.2012 20.8729 16.9028 21.4993 16.4655C22.1257 16.0283 22.653 15.462 23.0464 14.8042C23.4398 14.1463 23.6904 13.4119 23.7816 12.6492C23.8729 11.8866 23.8026 11.1131 23.5756 10.3798C23.3486 9.64658 22.9699 8.97019 22.4646 8.3953C21.9592 7.82041 21.3387 7.3601 20.644 7.04474C19.9493 6.72938 19.1961 6.56614 18.4342 6.5658V6.56699Z" fill="#4494F7"/>
<path id="Vector_4" d="M10.6373 13.2916C10.8434 12.4426 10.8434 11.5561 10.6373 10.7072C9.68043 10.4702 8.80621 9.97353 8.10945 9.27114C7.41269 8.56875 6.91999 7.68741 6.68478 6.72272C5.89161 6.52719 5.06473 6.51596 4.26662 6.68987C3.46851 6.86378 2.72003 7.21829 2.07773 7.72661C1.43544 8.23494 0.916117 8.88379 0.559005 9.62414C0.201892 10.3645 0.0163269 11.177 0.0163269 12.0003C0.0163269 12.8235 0.201892 13.636 0.559005 14.3764C0.916117 15.1167 1.43544 15.7656 2.07773 16.2739C2.72003 16.7822 3.46851 17.1367 4.26662 17.3106C5.06473 17.4846 5.89161 17.4733 6.68478 17.2778C6.91976 16.3128 7.41236 15.4311 8.10913 14.7284C8.8059 14.0257 9.68023 13.5288 10.6373 13.2916Z" fill="#005CF4"/>
<path id="Vector_5" d="M13.2007 10.7084C14.1575 10.4711 15.0317 9.97435 15.7284 9.27188C16.4252 8.5694 16.9179 7.68804 17.1532 6.72333C16.1963 6.96037 15.322 7.45709 14.6252 8.1596C13.9285 8.8621 13.4358 9.74356 13.2007 10.7084Z" fill="#186EF9"/>
<path id="Vector_6" d="M13.2007 13.2916C13.4358 14.2564 13.9285 15.1379 14.6252 15.8404C15.322 16.5429 16.1963 17.0396 17.1532 17.2767C16.9179 16.312 16.4252 15.4306 15.7284 14.7281C15.0317 14.0256 14.1575 13.5289 13.2007 13.2916Z" fill="#0246F2"/>
<path id="Vector_7" d="M10.6372 10.7084C10.4019 9.74365 9.90914 8.86228 9.2124 8.15981C8.51566 7.45734 7.64149 6.96056 6.68466 6.72333C6.91995 7.68804 7.41268 8.5694 8.10942 9.27188C8.80615 9.97435 9.68032 10.4711 10.6372 10.7084Z" fill="#0046F8"/>
<path id="Vector_8" d="M10.6372 13.2916C9.68032 13.5289 8.80615 14.0256 8.10942 14.7281C7.41268 15.4306 6.91995 16.312 6.68466 17.2767C7.64149 17.0394 8.51566 16.5427 9.2124 15.8402C9.90914 15.1377 10.4019 14.2563 10.6372 13.2916Z" fill="#0729F1"/>
<path id="Vector_9" d="M10.6373 10.7084C11.4793 10.9163 12.3586 10.9163 13.2006 10.7084C13.4357 9.74361 13.9283 8.86214 14.6251 8.15964C15.3219 7.45713 16.1961 6.96041 17.1531 6.72337C17.347 5.92366 17.3581 5.08998 17.1856 4.28529C17.0132 3.48061 16.6615 2.72597 16.1574 2.07838C15.6532 1.4308 15.0096 0.9072 14.2753 0.547147C13.541 0.187093 12.7352 0 11.9186 0C11.1021 0 10.2962 0.187093 9.56192 0.547147C8.82761 0.9072 8.18406 1.4308 7.67988 2.07838C7.17571 2.72597 6.8241 3.48061 6.65161 4.28529C6.47911 5.08998 6.49026 5.92366 6.68419 6.72337C7.64122 6.96032 8.51561 7.45699 9.21248 8.1595C9.90936 8.86201 10.4021 9.74353 10.6373 10.7084Z" fill="#7ABDF7"/>
<path id="Vector_10" d="M13.2006 13.2916C12.3586 13.0837 11.4793 13.0837 10.6373 13.2916C10.402 14.2563 9.90928 15.1377 9.21254 15.8401C8.5158 16.5426 7.64163 17.0394 6.6848 17.2766C6.49087 18.0763 6.47972 18.91 6.65222 19.7147C6.82471 20.5194 7.17632 21.274 7.6805 21.9216C8.18467 22.5692 8.82822 23.0928 9.56253 23.4528C10.2968 23.8129 11.1027 24 11.9192 24C12.7358 24 13.5416 23.8129 14.2759 23.4528C15.0103 23.0928 15.6538 22.5692 16.158 21.9216C16.6621 21.274 17.0138 20.5194 17.1863 19.7147C17.3587 18.91 17.3476 18.0763 17.1537 17.2766C16.1966 17.0397 15.3223 16.543 14.6254 15.8405C13.9285 15.138 13.4357 14.2565 13.2006 13.2916Z" fill="#0D74F5"/>
<path id="Vector_11" d="M18.4342 6.56699C18.0025 6.56694 17.5724 6.61923 17.1532 6.72275C16.9181 7.68742 16.4255 8.56878 15.7289 9.27118C15.0322 9.97359 14.1581 10.4702 13.2013 10.7072C12.9951 11.5561 12.9951 12.4427 13.2013 13.2916C14.1581 13.5287 15.0322 14.0255 15.7289 14.728C16.4255 15.4305 16.9181 16.3119 17.1532 17.2766C17.8933 17.4589 18.6634 17.4808 19.4125 17.341C20.1617 17.2012 20.8729 16.9028 21.4993 16.4655C22.1257 16.0283 22.653 15.462 23.0464 14.8042C23.4398 14.1463 23.6904 13.4119 23.7816 12.6492C23.8729 11.8866 23.8026 11.1131 23.5756 10.3798C23.3486 9.64658 22.9699 8.97019 22.4646 8.3953C21.9592 7.82041 21.3387 7.3601 20.644 7.04474C19.9493 6.72938 19.1961 6.56614 18.4342 6.5658V6.56699Z" fill="#4494F7"/>
<path id="Vector_12" d="M10.6373 13.2916C10.8434 12.4426 10.8434 11.5561 10.6373 10.7072C9.68043 10.4702 8.80621 9.97353 8.10945 9.27114C7.41269 8.56875 6.91999 7.68741 6.68478 6.72272C5.89161 6.52719 5.06473 6.51596 4.26662 6.68987C3.46851 6.86378 2.72003 7.21829 2.07773 7.72661C1.43544 8.23494 0.916117 8.88379 0.559005 9.62414C0.201892 10.3645 0.0163269 11.177 0.0163269 12.0003C0.0163269 12.8235 0.201892 13.636 0.559005 14.3764C0.916117 15.1167 1.43544 15.7656 2.07773 16.2739C2.72003 16.7822 3.46851 17.1367 4.26662 17.3106C5.06473 17.4846 5.89161 17.4733 6.68478 17.2778C6.91976 16.3128 7.41236 15.4311 8.10913 14.7284C8.8059 14.0257 9.68023 13.5288 10.6373 13.2916Z" fill="#005CF4"/>
<path id="Vector_13" d="M13.2007 10.7084C14.1575 10.4711 15.0317 9.97435 15.7284 9.27188C16.4252 8.5694 16.9179 7.68804 17.1532 6.72333C16.1963 6.96037 15.322 7.45709 14.6252 8.1596C13.9285 8.8621 13.4358 9.74356 13.2007 10.7084Z" fill="#186EF9"/>
<path id="Vector_14" d="M13.2007 13.2916C13.4358 14.2564 13.9285 15.1379 14.6252 15.8404C15.322 16.5429 16.1963 17.0396 17.1532 17.2767C16.9179 16.312 16.4252 15.4306 15.7284 14.7281C15.0317 14.0256 14.1575 13.5289 13.2007 13.2916Z" fill="#0246F2"/>
<path id="Vector_15" d="M10.6372 10.7084C10.4019 9.74365 9.90914 8.86228 9.2124 8.15981C8.51566 7.45734 7.64149 6.96056 6.68466 6.72333C6.91995 7.68804 7.41268 8.5694 8.10942 9.27188C8.80615 9.97435 9.68032 10.4711 10.6372 10.7084Z" fill="#0046F8"/>
<path id="Vector_16" d="M10.6372 13.2916C9.68032 13.5289 8.80615 14.0256 8.10942 14.7281C7.41268 15.4306 6.91995 16.312 6.68466 17.2767C7.64149 17.0394 8.51566 16.5427 9.2124 15.8402C9.90914 15.1377 10.4019 14.2563 10.6372 13.2916Z" fill="#0729F1"/>
</g>
</g>
</svg>
