<svg width="24" height="24" viewBox="0 0 24 24" fill="none" xmlns="http://www.w3.org/2000/svg">
<g id="Icons / Interface / Poloniex">
<g id="Group 218">
<path id="Vector" d="M0 1.65074V22.3493C0 23.2609 0.739059 24 1.65074 24H22.3493C23.2609 24 24 23.2609 24 22.3493V1.65074C24 0.739059 23.2609 0 22.3493 0H1.65074C0.739059 0 0 0.739059 0 1.65074Z" fill="url(#paint0_linear)"/>
<path id="Vector_2" d="M2.9996 5.97729H6.77062L11.1527 12.401L9.04092 12.8705L7.28469 12.401L2.9996 5.97729Z" fill="url(#paint1_linear)"/>
<path id="Vector_3" d="M2.80203 18.8241H6.57305L11.1527 12.401H7.28469L2.80203 18.8241Z" fill="url(#paint2_linear)"/>
<path id="Vector_4" d="M8.53601 5.97729H12.3076L16.6891 12.401L14.617 12.8967L12.8168 12.401L8.53601 5.97729Z" fill="url(#paint3_linear)"/>
<path id="Vector_5" d="M17.2074 5.97729H20.979L17.5452 11.1582L15.6091 8.32199L17.2074 5.97729Z" fill="url(#paint4_linear)"/>
<path id="Vector_6" d="M14.0108 5.97729H15.464L14.7487 7.05726L14.0108 5.97729Z" fill="url(#paint5_linear)"/>
<path id="Vector_7" d="M17.4269 18.824H21.1986L17.5586 13.5822L15.6091 16.2909L17.4269 18.824Z" fill="url(#paint6_linear)"/>
<path id="Vector_8" d="M13.787 18.824H15.6792L14.7444 17.494L13.787 18.824Z" fill="url(#paint7_linear)"/>
<path id="Vector_9" d="M8.33844 18.8241H12.0704L16.6891 12.401H12.8168L8.33844 18.8241Z" fill="url(#paint8_linear)"/>
</g>
</g>
<defs>
<linearGradient id="paint0_linear" x1="11.9997" y1="24" x2="11.9997" y2="0" gradientUnits="userSpaceOnUse">
<stop stop-color="#D1D5D8"/>
<stop offset="1" stop-color="#FDFCFD"/>
</linearGradient>
<linearGradient id="paint1_linear" x1="4.17353" y1="5.10327" x2="7.88173" y2="12.0825" gradientUnits="userSpaceOnUse">
<stop stop-color="#73A2A8"/>
<stop offset="1" stop-color="#71B5BF"/>
</linearGradient>
<linearGradient id="paint2_linear" x1="4.00702" y1="18.0339" x2="7.66698" y2="11.2863" gradientUnits="userSpaceOnUse">
<stop stop-color="#699699"/>
<stop offset="1" stop-color="#73A4A6"/>
</linearGradient>
<linearGradient id="paint3_linear" x1="9.68676" y1="5.3605" x2="13.1435" y2="11.8419" gradientUnits="userSpaceOnUse">
<stop stop-color="#005661"/>
<stop offset="1" stop-color="#048293"/>
</linearGradient>
<linearGradient id="paint4_linear" x1="16.8394" y1="10.3295" x2="16.8394" y2="5.2925" gradientUnits="userSpaceOnUse">
<stop stop-color="#676F74"/>
<stop offset="1" stop-color="#3B444A"/>
</linearGradient>
<linearGradient id="paint5_linear" x1="13.3819" y1="5.2925" x2="13.3819" y2="6.34258" gradientUnits="userSpaceOnUse">
<stop stop-color="#93989C"/>
<stop offset="1" stop-color="#AAAFB2"/>
</linearGradient>
<linearGradient id="paint6_linear" x1="17.3776" y1="17.2064" x2="15.3066" y2="14.0604" gradientUnits="userSpaceOnUse">
<stop stop-color="#3B444A"/>
<stop offset="1" stop-color="#3B444A"/>
</linearGradient>
<linearGradient id="paint7_linear" x1="13.3776" y1="17.7825" x2="13.3776" y2="16.4891" gradientUnits="userSpaceOnUse">
<stop stop-color="#858B8F"/>
<stop offset="1" stop-color="#868D90"/>
</linearGradient>
<linearGradient id="paint8_linear" x1="9.48469" y1="17.8706" x2="12.954" y2="11.4512" gradientUnits="userSpaceOnUse">
<stop stop-color="#08575C"/>
<stop offset="1" stop-color="#096166"/>
</linearGradient>
</defs>
</svg>
