<svg width="10" height="10" viewBox="0 0 10 10" fill="none" xmlns="http://www.w3.org/2000/svg">
<path fill-rule="evenodd" clip-rule="evenodd" d="M4.16536 1.24935C4.05486 1.24935 3.94888 1.29325 3.87074 1.37139C3.7926 1.44953 3.7487 1.55551 3.7487 1.66602V2.08268H6.2487V1.66602C6.2487 1.55551 6.2048 1.44953 6.12666 1.37139C6.04852 1.29325 5.94254 1.24935 5.83203 1.24935H4.16536ZM7.08203 2.08268V1.66602C7.08203 1.33449 6.95034 1.01655 6.71591 0.782132C6.48149 0.547712 6.16355 0.416016 5.83203 0.416016H4.16536C3.83384 0.416016 3.5159 0.547712 3.28148 0.782132C3.04706 1.01655 2.91536 1.33449 2.91536 1.66602V2.08268H1.2487C1.01858 2.08268 0.832031 2.26923 0.832031 2.49935C0.832031 2.72947 1.01858 2.91602 1.2487 2.91602H1.66536V8.33268C1.66536 8.6642 1.79706 8.98214 2.03148 9.21657C2.2659 9.45098 2.58384 9.58268 2.91536 9.58268H7.08203C7.41355 9.58268 7.73149 9.45098 7.96592 9.21657C8.20034 8.98214 8.33203 8.6642 8.33203 8.33268V2.91602H8.7487C8.97882 2.91602 9.16537 2.72947 9.16537 2.49935C9.16537 2.26923 8.97882 2.08268 8.7487 2.08268H7.08203ZM2.4987 2.91602V8.33268C2.4987 8.44319 2.5426 8.54917 2.62074 8.62731C2.69888 8.70545 2.80486 8.74935 2.91536 8.74935H7.08203C7.19254 8.74935 7.29852 8.70545 7.37666 8.62731C7.4548 8.54917 7.4987 8.44319 7.4987 8.33268V2.91602H2.4987ZM4.16536 4.16602C4.39548 4.16602 4.58203 4.35256 4.58203 4.58268V7.08268C4.58203 7.3128 4.39548 7.49935 4.16536 7.49935C3.93525 7.49935 3.7487 7.3128 3.7487 7.08268V4.58268C3.7487 4.35256 3.93525 4.16602 4.16536 4.16602ZM5.41536 4.58268C5.41536 4.35256 5.60191 4.16602 5.83203 4.16602C6.06215 4.16602 6.2487 4.35256 6.2487 4.58268V7.08268C6.2487 7.3128 6.06215 7.49935 5.83203 7.49935C5.60191 7.49935 5.41536 7.3128 5.41536 7.08268V4.58268Z" fill="var(--neutral-7)"/>
</svg>
