<svg width="20" height="20" viewBox="0 0 20 20" fill="none" xmlns="http://www.w3.org/2000/svg">
<path fill-rule="evenodd" clip-rule="evenodd" d="M9.9987 2.36176C9.7961 2.36176 9.6018 2.44224 9.45855 2.5855C9.31529 2.72876 9.23481 2.92306 9.23481 3.12565V3.25856C9.23323 3.65334 9.11625 4.03905 8.89827 4.3682C8.68029 4.69736 8.37082 4.95559 8.00795 5.1111C7.94336 5.13879 7.87541 5.15736 7.80604 5.16643C7.47632 5.28189 7.12138 5.31035 6.77585 5.2477C6.37787 5.17554 6.01062 4.98581 5.72148 4.70298L5.71546 4.69708L5.66966 4.65122C5.59871 4.58019 5.51416 4.52355 5.42143 4.48511C5.32869 4.44667 5.22929 4.42688 5.12891 4.42688C5.02852 4.42688 4.92912 4.44667 4.83638 4.48511C4.74365 4.52355 4.6594 4.57989 4.58845 4.65092L4.58785 4.65152C4.51683 4.72246 4.46049 4.80671 4.42204 4.89945C4.3836 4.99218 4.36382 5.09158 4.36382 5.19197C4.36382 5.29236 4.3836 5.39176 4.42204 5.48449C4.46049 5.57723 4.51683 5.66148 4.58785 5.73242L4.63995 5.78451C4.92278 6.07366 5.11248 6.44093 5.18464 6.83892C5.25537 7.22898 5.20998 7.63104 5.05439 7.99527C4.91264 8.36694 4.66444 8.6888 4.34061 8.92042C4.01022 9.15672 3.61639 9.28817 3.21031 9.29766L3.19245 9.29787H3.1237C2.9211 9.29787 2.7268 9.37835 2.58355 9.52161C2.44029 9.66487 2.35981 9.85917 2.35981 10.0618C2.35981 10.2644 2.44029 10.4587 2.58355 10.6019C2.7268 10.7452 2.9211 10.8257 3.1237 10.8257H3.25661C3.65139 10.8272 4.0371 10.9442 4.36625 11.1622C4.69426 11.3794 4.95184 11.6875 5.10753 12.0487C5.26952 12.4178 5.31767 12.8268 5.24575 13.2235C5.17359 13.6215 4.98386 13.9887 4.70102 14.2779L4.69513 14.2839L4.64926 14.3297C4.57824 14.4006 4.5216 14.4852 4.48316 14.5779C4.44471 14.6707 4.42493 14.7701 4.42493 14.8704C4.42493 14.9708 4.44471 15.0702 4.48316 15.163C4.5216 15.2557 4.57794 15.34 4.64897 15.4109L4.64957 15.4115C4.72051 15.4825 4.80476 15.5389 4.89749 15.5773C4.99023 15.6157 5.08963 15.6355 5.19002 15.6355C5.2904 15.6355 5.38981 15.6157 5.48254 15.5773C5.57528 15.5389 5.65952 15.4825 5.73047 15.4115L5.78256 15.3594C6.0717 15.0766 6.43898 14.8869 6.83696 14.8147C7.22702 14.744 7.62908 14.7894 7.99331 14.945C8.36499 15.0867 8.68685 15.3349 8.91847 15.6587C9.15477 15.9891 9.28621 16.383 9.29571 16.789L9.29592 16.8069V16.8757C9.29592 17.0782 9.3764 17.2725 9.51966 17.4158C9.66292 17.5591 9.85721 17.6395 10.0598 17.6395C10.2624 17.6395 10.4567 17.5591 10.6 17.4158C10.7432 17.2725 10.8237 17.0782 10.8237 16.8757V16.7458L10.8237 16.7427C10.8253 16.348 10.9423 15.9622 11.1602 15.6331C11.3775 15.3051 11.6856 15.0475 12.0469 14.8918C12.4159 14.7298 12.8249 14.6817 13.2215 14.7536C13.6195 14.8258 13.9868 15.0155 14.2759 15.2983L14.2819 15.3042L14.3277 15.3501C14.3987 15.4211 14.4832 15.4777 14.576 15.5162C14.6687 15.5546 14.7681 15.5744 14.8685 15.5744C14.9689 15.5744 15.0683 15.5546 15.161 15.5162C15.2537 15.4777 15.338 15.4214 15.4089 15.3504L15.4095 15.3498C15.4806 15.2788 15.5369 15.1946 15.5754 15.1019C15.6138 15.0091 15.6336 14.9097 15.6336 14.8093C15.6336 14.7089 15.6138 14.6095 15.5754 14.5168C15.5369 14.4241 15.4806 14.3398 15.4095 14.2689L15.3574 14.2168C15.0746 13.9276 14.8849 13.5604 14.8128 13.1624C14.7408 12.7658 14.789 12.3567 14.9509 11.9877C15.1066 11.6264 15.3642 11.3183 15.6923 11.1011C16.0214 10.8831 16.4071 10.7661 16.8019 10.7645L16.8049 10.7645L16.8737 10.7645C17.0763 10.7645 17.2706 10.6841 17.4138 10.5408C17.5571 10.3975 17.6376 10.2032 17.6376 10.0007C17.6376 9.79805 17.5571 9.60376 17.4138 9.4605C17.2706 9.31724 17.0763 9.23676 16.8737 9.23676H16.7438L16.7408 9.23676C16.346 9.23518 15.9603 9.1182 15.6311 8.90022C15.302 8.68224 15.0438 8.37277 14.8882 8.0099C14.8606 7.94531 14.842 7.87736 14.8329 7.80799C14.7175 7.47827 14.689 7.12333 14.7516 6.7778C14.8238 6.37982 15.0135 6.01258 15.2964 5.72343L15.3023 5.71741L15.3481 5.67161C15.4192 5.60067 15.4758 5.51612 15.5142 5.42338C15.5527 5.33065 15.5725 5.23124 15.5725 5.13086C15.5725 5.03047 15.5527 4.93107 15.5142 4.83834C15.4758 4.7456 15.4195 4.66135 15.3484 4.59041L15.3478 4.58981C15.2769 4.51878 15.1926 4.46244 15.0999 4.424C15.0072 4.38556 14.9078 4.36577 14.8074 4.36577C14.707 4.36577 14.6076 4.38556 14.5149 4.424C14.4221 4.46244 14.3379 4.51878 14.2669 4.58981L14.2148 4.6419C13.9257 4.92473 13.5584 5.11443 13.1604 5.18659C12.7638 5.25851 12.3547 5.21036 11.9857 5.04837C11.6244 4.89268 11.3163 4.6351 11.0991 4.30709C10.8811 3.97794 10.7642 3.59223 10.7626 3.19745L10.7626 3.1944V3.12565C10.7626 2.92306 10.6821 2.72876 10.5388 2.5855C10.3956 2.44224 10.2013 2.36176 9.9987 2.36176ZM8.37824 1.5052C8.80802 1.07543 9.39091 0.833984 9.9987 0.833984C10.6065 0.833984 11.1894 1.07543 11.6192 1.5052C12.0489 1.93497 12.2904 2.51786 12.2904 3.12565V3.19249C12.291 3.28893 12.3196 3.38311 12.3729 3.46353C12.4264 3.54427 12.5023 3.60761 12.5913 3.64575L12.5988 3.64898C12.6896 3.68904 12.7902 3.70103 12.8879 3.68333C12.9844 3.66582 13.0736 3.6201 13.1441 3.55199L13.186 3.51011C13.3989 3.29703 13.6516 3.128 13.9298 3.01268C14.208 2.89735 14.5062 2.83799 14.8074 2.83799C15.1085 2.83799 15.4067 2.89735 15.6849 3.01268C15.9632 3.128 16.2159 3.29704 16.4287 3.51011C16.6415 3.72281 16.8103 3.97534 16.9256 4.25329C17.0409 4.53149 17.1002 4.8297 17.1002 5.13086C17.1002 5.43202 17.0409 5.73023 16.9256 6.00843C16.8103 6.2865 16.6414 6.53914 16.4284 6.75191C16.4283 6.75201 16.4285 6.75181 16.4284 6.75191L16.3863 6.79408C16.3181 6.86464 16.2724 6.95382 16.2549 7.05037C16.2372 7.14799 16.2492 7.24868 16.2892 7.33944C16.3108 7.38836 16.3271 7.43927 16.338 7.49133C16.3742 7.54459 16.4205 7.59057 16.4747 7.62644C16.5551 7.6797 16.6493 7.70838 16.7457 7.70898H16.8737C17.4815 7.70898 18.0644 7.95043 18.4942 8.3802C18.9239 8.80997 19.1654 9.39286 19.1654 10.0007C19.1654 10.6084 18.9239 11.1913 18.4942 11.6211C18.0644 12.0509 17.4815 12.2923 16.8737 12.2923H16.8069C16.7104 12.2929 16.6162 12.3216 16.5358 12.3749C16.4551 12.4283 16.3917 12.5042 16.3536 12.5932L16.3504 12.6008C16.3103 12.6915 16.2983 12.7922 16.316 12.8898C16.3335 12.9864 16.3792 13.0755 16.4474 13.1461L16.4892 13.188C16.4893 13.1881 16.4891 13.1879 16.4892 13.188C16.7022 13.4008 16.8714 13.6537 16.9867 13.9318C17.102 14.21 17.1614 14.5082 17.1614 14.8093C17.1614 15.1105 17.102 15.4087 16.9867 15.6869C16.8713 15.9651 16.7023 16.2178 16.4892 16.4307L15.9494 15.8902L16.4898 16.4301C16.277 16.6432 16.0243 16.8122 15.7461 16.9275C15.4679 17.0428 15.1696 17.1022 14.8685 17.1022C14.5673 17.1022 14.2691 17.0428 13.9909 16.9275C13.7128 16.8122 13.4602 16.6433 13.2474 16.4304C13.2473 16.4303 13.2475 16.4305 13.2474 16.4304L13.2052 16.3882C13.1347 16.3201 13.0455 16.2744 12.949 16.2569C12.8514 16.2392 12.7507 16.2511 12.6599 16.2912L12.6524 16.2945C12.5634 16.3326 12.4875 16.3959 12.434 16.4767C12.3808 16.5571 12.3521 16.6513 12.3515 16.7477V16.8757C12.3515 17.4834 12.11 18.0663 11.6803 18.4961C11.2505 18.9259 10.6676 19.1673 10.0598 19.1673C9.45202 19.1673 8.86913 18.9259 8.43936 18.4961C8.00959 18.0663 7.76814 17.4834 7.76814 16.8757V16.8179C7.76452 16.7207 7.73244 16.6267 7.67582 16.5475C7.61786 16.4665 7.53686 16.4048 7.44335 16.3704C7.42825 16.3648 7.41332 16.3588 7.3986 16.3523C7.30784 16.3122 7.20715 16.3003 7.10953 16.318C7.01297 16.3355 6.92379 16.3812 6.85323 16.4493L6.81137 16.4912C6.81127 16.4913 6.81147 16.4911 6.81137 16.4912C6.5986 16.7041 6.34566 16.8734 6.06759 16.9886C5.78939 17.1039 5.49118 17.1633 5.19002 17.1633C4.88886 17.1633 4.59065 17.1039 4.31245 16.9886C4.03451 16.8734 3.78197 16.7046 3.56926 16.4918C3.35619 16.279 3.18716 16.0262 3.07184 15.748C2.95651 15.4698 2.89715 15.1716 2.89715 14.8704C2.89715 14.5693 2.95651 14.2711 3.07184 13.9929C3.18716 13.7147 3.35619 13.4619 3.56926 13.2491L3.61114 13.2072C3.67926 13.1366 3.72498 13.0475 3.74248 12.9509C3.76018 12.8533 3.74824 12.7526 3.70818 12.6619L3.70487 12.6544C3.66672 12.5654 3.60342 12.4894 3.52269 12.436C3.44227 12.3827 3.34809 12.354 3.25165 12.3534H3.1237C2.51591 12.3534 1.93302 12.112 1.50324 11.6822C1.07347 11.2524 0.832031 10.6695 0.832031 10.0618C0.832031 9.45397 1.07347 8.87108 1.50324 8.44131C1.93302 8.01154 2.51591 7.77009 3.1237 7.77009H3.18148C3.27864 7.76647 3.37266 7.7344 3.45183 7.67777C3.53286 7.61981 3.59459 7.53881 3.62898 7.4453C3.63454 7.4302 3.64057 7.41528 3.64707 7.40055C3.68712 7.30979 3.69907 7.20911 3.68137 7.11149C3.66387 7.01493 3.61815 6.92575 3.55002 6.85519L3.50815 6.81332C3.29508 6.60049 3.12605 6.34775 3.01072 6.06954C2.8954 5.79134 2.83604 5.49313 2.83604 5.19197C2.83604 4.89081 2.8954 4.5926 3.01072 4.3144C3.126 4.03633 3.29492 3.78369 3.50785 3.57092C3.72062 3.35799 3.97326 3.18906 4.25133 3.07379C4.52954 2.95846 4.82775 2.8991 5.12891 2.8991C5.43007 2.8991 5.72827 2.95846 6.00648 3.07379C6.28468 3.18912 6.53743 3.35815 6.75026 3.57122L6.79213 3.61309C6.86269 3.68121 6.95187 3.72693 7.04842 3.74444C7.14604 3.76214 7.24672 3.75019 7.33749 3.71013C7.38641 3.68854 7.43732 3.67221 7.48938 3.66131C7.54264 3.62515 7.58861 3.57881 7.62449 3.52464C7.67775 3.44422 7.70643 3.35004 7.70703 3.2536V3.12565C7.70703 2.51786 7.94847 1.93497 8.37824 1.5052ZM9.9987 8.47287C9.15493 8.47287 8.47092 9.15688 8.47092 10.0007C8.47092 10.8444 9.15493 11.5284 9.9987 11.5284C10.8425 11.5284 11.5265 10.8444 11.5265 10.0007C11.5265 9.15688 10.8425 8.47287 9.9987 8.47287ZM6.94314 10.0007C6.94314 8.31311 8.31116 6.9451 9.9987 6.9451C11.6862 6.9451 13.0543 8.31311 13.0543 10.0007C13.0543 11.6882 11.6862 13.0562 9.9987 13.0562C8.31116 13.0562 6.94314 11.6882 6.94314 10.0007Z" fill="#505F79"/>
</svg>
