<svg width="12" height="12" viewBox="0 0 12 12" fill="none" xmlns="http://www.w3.org/2000/svg">
<path fill-rule="evenodd" clip-rule="evenodd" d="M6.0013 0.166016C6.20315 0.166016 6.38749 0.279945 6.47683 0.459906L7.99219 3.51235L11.381 4.00485C11.5807 4.03387 11.7465 4.17308 11.8088 4.36396C11.871 4.55483 11.8189 4.7643 11.6743 4.9043L9.22263 7.27863L9.80124 10.6329C9.83536 10.8308 9.75356 11.0307 9.59024 11.1487C9.42692 11.2666 9.2104 11.2822 9.03174 11.1887L6.0013 9.60417L2.97087 11.1887C2.7922 11.2822 2.57568 11.2666 2.41236 11.1487C2.24904 11.0307 2.16724 10.8308 2.20137 10.6329L2.77997 7.27863L0.328277 4.9043C0.183707 4.7643 0.131593 4.55483 0.193838 4.36396C0.256084 4.17308 0.421899 4.03387 0.621589 4.00485L4.01041 3.51235L5.52578 0.459906C5.61512 0.279945 5.79946 0.166016 6.0013 0.166016ZM6.0013 1.88454L4.8382 4.22742C4.76102 4.38289 4.6119 4.49069 4.43937 4.51577L1.83759 4.89389L3.7198 6.7167C3.84489 6.83783 3.90198 7.01243 3.87246 7.18355L3.42837 9.75804L5.75447 8.54175C5.90899 8.46095 6.09361 8.46095 6.24813 8.54175L8.57423 9.75804L8.13014 7.18355C8.10062 7.01243 8.15772 6.83783 8.2828 6.7167L10.165 4.89389L7.56324 4.51577C7.3907 4.49069 7.24159 4.38289 7.16441 4.22742L6.0013 1.88454Z" fill="#FEBB01"/>
<path d="M4.8382 4.22742L6.0013 1.88454L7.16441 4.22742C7.24159 4.38289 7.3907 4.49069 7.56324 4.51577L10.165 4.89389L8.2828 6.7167C8.15772 6.83783 8.10062 7.01243 8.13014 7.18355L8.57423 9.75804L6.24813 8.54175C6.09361 8.46095 5.90899 8.46095 5.75447 8.54175L3.42837 9.75804L3.87246 7.18355C3.90198 7.01243 3.84489 6.83783 3.7198 6.7167L1.83759 4.89389L4.43937 4.51577C4.6119 4.49069 4.76102 4.38289 4.8382 4.22742Z" fill="#FEBB01"/>
</svg>
