<svg width="18" height="17" viewBox="0 0 18 17" fill="none" xmlns="http://www.w3.org/2000/svg">
<path fill-rule="evenodd" clip-rule="evenodd" d="M9.0013 0.666016C9.28965 0.666016 9.553 0.828772 9.68062 1.08586L11.8454 5.4465L16.6866 6.15007C16.9719 6.19153 17.2088 6.39039 17.2977 6.66307C17.3866 6.93575 17.3122 7.23499 17.1056 7.435L13.6032 10.8269L14.4298 15.6188C14.4785 15.9014 14.3617 16.187 14.1284 16.3555C13.895 16.524 13.5857 16.5462 13.3305 16.4128L9.0013 14.1491L4.67211 16.4128C4.41687 16.5462 4.10756 16.524 3.87424 16.3555C3.64093 16.187 3.52408 15.9014 3.57283 15.6188L4.3994 10.8269L0.896981 7.435C0.690452 7.23499 0.616003 6.93575 0.704926 6.66307C0.793848 6.39039 1.03073 6.19153 1.316 6.15007L6.15717 5.4465L8.32198 1.08586C8.44961 0.828772 8.71296 0.666016 9.0013 0.666016ZM9.0013 3.12105L7.33972 6.46802C7.22946 6.69012 7.01645 6.84413 6.76997 6.87995L3.05314 7.42012L5.74202 10.0241C5.92071 10.1972 6.00227 10.4466 5.9601 10.6911L5.32569 14.3689L8.64869 12.6313C8.86943 12.5159 9.13317 12.5159 9.35392 12.6313L12.6769 14.3689L12.0425 10.6911C12.0003 10.4466 12.0819 10.1972 12.2606 10.0241L14.9495 7.42012L11.2326 6.87995C10.9862 6.84413 10.7731 6.69012 10.6629 6.46802L9.0013 3.12105Z" fill="#505F79"/>
</svg>
