<svg width="14" height="13" viewBox="0 0 14 13" fill="none" xmlns="http://www.w3.org/2000/svg">
<path fill-rule="evenodd" clip-rule="evenodd" d="M6.9987 0.333984C7.22938 0.333984 7.44005 0.46419 7.54216 0.66986L9.274 4.15837L13.1469 4.72123C13.3752 4.75439 13.5647 4.91348 13.6358 5.13163C13.7069 5.34978 13.6474 5.58916 13.4822 5.74917L10.6802 8.46268L11.3415 12.2962C11.3805 12.5223 11.287 12.7508 11.1003 12.8856C10.9137 13.0204 10.6662 13.0382 10.4621 12.9314L6.9987 11.1204L3.53534 12.9314C3.33115 13.0382 3.0837 13.0204 2.89705 12.8856C2.7104 12.7508 2.61692 12.5223 2.65592 12.2962L3.31718 8.46268L0.515241 5.74917C0.350018 5.58916 0.290459 5.34978 0.361597 5.13163C0.432734 4.91348 0.622237 4.75439 0.850455 4.72123L4.72339 4.15837L6.45524 0.66986C6.55734 0.46419 6.76802 0.333984 6.9987 0.333984ZM6.9987 2.29801L5.66943 4.97559C5.58123 5.15327 5.41081 5.27647 5.21363 5.30513L2.24017 5.73726L4.39127 7.82048C4.53422 7.95892 4.59947 8.15846 4.56574 8.35402L4.05821 11.2963L6.71661 9.90625C6.8932 9.81391 7.10419 9.81391 7.28079 9.90625L9.93919 11.2963L9.43166 8.35402C9.39792 8.15846 9.46317 7.95892 9.60613 7.82048L11.7572 5.73726L8.78377 5.30513C8.58658 5.27647 8.41617 5.15327 8.32796 4.97559L6.9987 2.29801Z" fill="#FEBB01"/>
<path d="M5.66943 4.97559L6.9987 2.29801L8.32796 4.97559C8.41617 5.15327 8.58658 5.27647 8.78377 5.30513L11.7572 5.73726L9.60613 7.82048C9.46317 7.95892 9.39792 8.15846 9.43166 8.35402L9.93919 11.2963L7.28079 9.90625C7.10419 9.81391 6.8932 9.81391 6.71661 9.90625L4.05821 11.2963L4.56574 8.35402C4.59947 8.15846 4.53422 7.95892 4.39127 7.82048L2.24017 5.73726L5.21363 5.30513C5.41081 5.27647 5.58123 5.15327 5.66943 4.97559Z" fill="#FEBB01"/>
</svg>
