<svg width="14" height="14" viewBox="0 0 14 14" fill="none" xmlns="http://www.w3.org/2000/svg">
<path fill-rule="evenodd" clip-rule="evenodd" d="M6.9987 1.66732C5.58421 1.66732 4.22766 2.22922 3.22746 3.22941C2.22727 4.22961 1.66536 5.58616 1.66536 7.00065V7.66732H2.9987C3.52913 7.66732 4.03784 7.87803 4.41291 8.2531C4.78798 8.62818 4.9987 9.13688 4.9987 9.66732V11.6673C4.9987 12.1978 4.78798 12.7065 4.41291 13.0815C4.03784 13.4566 3.52913 13.6673 2.9987 13.6673H2.33203C1.8016 13.6673 1.29289 13.4566 0.917818 13.0815C0.542745 12.7065 0.332031 12.1978 0.332031 11.6673V7.00065C0.332031 5.23254 1.03441 3.53685 2.28465 2.28661C3.53489 1.03636 5.23059 0.333984 6.9987 0.333984C8.76681 0.333984 10.4625 1.03636 11.7127 2.28661C12.963 3.53685 13.6654 5.23254 13.6654 7.00065V11.6673C13.6654 12.1978 13.4546 12.7065 13.0796 13.0815C12.7045 13.4566 12.1958 13.6673 11.6654 13.6673H10.9987C10.4683 13.6673 9.95956 13.4566 9.58448 13.0815C9.20941 12.7065 8.9987 12.1978 8.9987 11.6673V9.66732C8.9987 9.13688 9.20941 8.62818 9.58448 8.2531C9.95956 7.87803 10.4683 7.66732 10.9987 7.66732H12.332V7.00065C12.332 5.58616 11.7701 4.22961 10.7699 3.22941C9.76974 2.22922 8.41319 1.66732 6.9987 1.66732ZM12.332 9.00065H10.9987C10.8219 9.00065 10.6523 9.07089 10.5273 9.19591C10.4023 9.32094 10.332 9.49051 10.332 9.66732V11.6673C10.332 11.8441 10.4023 12.0137 10.5273 12.1387C10.6523 12.2637 10.8219 12.334 10.9987 12.334H11.6654C11.8422 12.334 12.0117 12.2637 12.1368 12.1387C12.2618 12.0137 12.332 11.8441 12.332 11.6673V9.00065ZM1.66536 11.6673C1.66536 11.8441 1.7356 12.0137 1.86063 12.1387C1.98565 12.2637 2.15522 12.334 2.33203 12.334H2.9987C3.17551 12.334 3.34508 12.2637 3.4701 12.1387C3.59513 12.0137 3.66536 11.8441 3.66536 11.6673V9.66732C3.66536 9.49051 3.59513 9.32094 3.4701 9.19591C3.34508 9.07089 3.17551 9.00065 2.9987 9.00065H1.66536V11.6673Z" fill="#505F79"/>
</svg>
