<svg width="14" height="16" viewBox="0 0 14 16" fill="none" xmlns="http://www.w3.org/2000/svg">
<path fill-rule="evenodd" clip-rule="evenodd" d="M0.522898 4.72808C0.259294 4.46447 0.259294 4.03709 0.522898 3.77348L3.1479 1.14848C3.4115 0.88488 3.83889 0.88488 4.10249 1.14848L6.72749 3.77348C6.9911 4.03709 6.9911 4.46447 6.72749 4.72808C6.46389 4.99168 6.0365 4.99168 5.7729 4.72808L4.3002 3.25537L4.3002 13.6258C4.3002 13.9986 3.99799 14.3008 3.6252 14.3008C3.2524 14.3008 2.9502 13.9986 2.9502 13.6258L2.9502 3.25537L1.47749 4.72808C1.21389 4.99168 0.786502 4.99168 0.522898 4.72808ZM7.2729 11.2735C7.5365 11.0099 7.96389 11.0099 8.22749 11.2735L9.70019 12.7462V2.37578C9.70019 2.00299 10.0024 1.70078 10.3752 1.70078C10.748 1.70078 11.0502 2.00299 11.0502 2.37578V12.7462L12.5229 11.2735C12.7865 11.0099 13.2139 11.0099 13.4775 11.2735C13.7411 11.5371 13.7411 11.9645 13.4775 12.2281L10.8525 14.8531C10.5889 15.1167 10.1615 15.1167 9.8979 14.8531L7.2729 12.2281C7.00929 11.9645 7.00929 11.5371 7.2729 11.2735Z" fill="#6B778C"/>
</svg>
