<svg width="8" height="10" viewBox="0 0 8 10" fill="none" xmlns="http://www.w3.org/2000/svg">
<path fill-rule="evenodd" clip-rule="evenodd" d="M1.93567 0C1.15561 0 0.604784 0.742996 0.851463 1.46248L1.54374 3.48161C0.636349 3.81649 0 4.6692 0 5.6579V6.66667C0 6.97349 0.255837 7.22222 0.571429 7.22222H3.42857V9.44444C3.42857 9.75127 3.68441 10 4 10C4.31559 10 4.57143 9.75127 4.57143 9.44444V7.22222H7.42857C7.74416 7.22222 8 6.97349 8 6.66667V5.6579C8 4.6692 7.36365 3.81649 6.45626 3.48161L7.14854 1.46248C7.39522 0.742997 6.84439 0 6.06433 0H1.93567ZM4 6.11111H6.85714V5.6579C6.85714 5.02019 6.35059 4.49073 5.69638 4.44464C5.31269 4.41761 5.05795 4.04639 5.1796 3.69158L6.06433 1.11111H1.93567L2.8204 3.69158C2.94205 4.04638 2.68732 4.41761 2.30362 4.44464C1.64941 4.49073 1.14286 5.02019 1.14286 5.6579V6.11111H4Z" fill="#A7B2C2"/>
</svg>
