<svg width="12" height="16" viewBox="0 0 12 16" fill="none" xmlns="http://www.w3.org/2000/svg">
<path fill-rule="evenodd" clip-rule="evenodd" d="M10.9998 5.5C11.4601 5.5 11.8332 5.8731 11.8332 6.33333V14.6667C11.8332 15.1269 11.4601 15.5 10.9998 15.5C10.5396 15.5 10.1665 15.1269 10.1665 14.6667V6.33333C10.1665 5.8731 10.5396 5.5 10.9998 5.5Z" fill="#505F79"/>
<path fill-rule="evenodd" clip-rule="evenodd" d="M5.99984 0.5C6.46008 0.5 6.83317 0.873096 6.83317 1.33333V14.6667C6.83317 15.1269 6.46008 15.5 5.99984 15.5C5.5396 15.5 5.1665 15.1269 5.1665 14.6667V1.33333C5.1665 0.873096 5.5396 0.5 5.99984 0.5Z" fill="#505F79"/>
<path fill-rule="evenodd" clip-rule="evenodd" d="M0.999837 8.83333C1.46007 8.83333 1.83317 9.20643 1.83317 9.66667V14.6667C1.83317 15.1269 1.46007 15.5 0.999837 15.5C0.5396 15.5 0.166504 15.1269 0.166504 14.6667V9.66667C0.166504 9.20643 0.5396 8.83333 0.999837 8.83333Z" fill="#505F79"/>
</svg>
