<svg width="12" height="12" viewBox="0 0 12 12" fill="none" xmlns="http://www.w3.org/2000/svg">
<path fill-rule="evenodd" clip-rule="evenodd" d="M8.18185 1.68258C8.35759 1.50685 8.64251 1.50685 8.81825 1.68258L10.5682 3.43258C10.744 3.60832 10.744 3.89324 10.5682 4.06898L8.81825 5.81898C8.64251 5.99472 8.35759 5.99472 8.18185 5.81898C8.00611 5.64324 8.00611 5.35832 8.18185 5.18258L9.16365 4.20078H2.25005C2.00152 4.20078 1.80005 3.99931 1.80005 3.75078C1.80005 3.50225 2.00152 3.30078 2.25005 3.30078H9.16365L8.18185 2.31898C8.00611 2.14324 8.00611 1.85832 8.18185 1.68258ZM3.81825 6.18258C3.99398 6.35832 3.99398 6.64324 3.81825 6.81898L2.83644 7.80078H9.75005C9.99858 7.80078 10.2 8.00225 10.2 8.25078C10.2 8.49931 9.99858 8.70078 9.75005 8.70078H2.83644L3.81825 9.68258C3.99398 9.85832 3.99398 10.1432 3.81825 10.319C3.64251 10.4947 3.35759 10.4947 3.18185 10.319L1.43185 8.56898C1.25611 8.39324 1.25611 8.10832 1.43185 7.93258L3.18185 6.18258C3.35759 6.00685 3.64251 6.00685 3.81825 6.18258Z" fill="#505F79"/>
</svg>
