<svg width="14" height="12" viewBox="0 0 14 12" fill="none" xmlns="http://www.w3.org/2000/svg">
<path fill-rule="evenodd" clip-rule="evenodd" d="M4.49564 11.7216C9.59016 11.7216 12.3762 7.50092 12.3762 3.84107C12.3762 3.72113 12.3738 3.60179 12.3682 3.48299C12.909 3.09209 13.3791 2.60431 13.75 2.04892C13.2537 2.2694 12.7196 2.41795 12.1594 2.48497C12.7312 2.14212 13.1703 1.59953 13.3773 0.952824C12.842 1.27007 12.2495 1.50087 11.6186 1.62512C11.1132 1.08674 10.3934 0.75 9.59686 0.75C8.0672 0.75 6.82671 1.99049 6.82671 3.51955C6.82671 3.73696 6.85107 3.94826 6.89859 4.15108C4.59673 4.03536 2.55548 2.93317 1.1896 1.25728C0.951514 1.66649 0.814462 2.14212 0.814462 2.6494C0.814462 3.61033 1.30349 4.45861 2.04701 4.95487C1.59271 4.94089 1.16584 4.81604 0.792538 4.60841C0.791944 4.61996 0.791944 4.63152 0.791944 4.64367C0.791944 5.98525 1.74683 7.1051 3.01404 7.35906C2.78141 7.42235 2.53663 7.45648 2.28391 7.45648C2.10549 7.45648 1.93194 7.43882 1.76324 7.40653C2.11581 8.50694 3.1383 9.3077 4.35071 9.33028C3.40257 10.0732 2.20842 10.5159 0.91069 10.5159C0.687238 10.5159 0.466756 10.5031 0.25 10.4775C1.4758 11.2631 2.93121 11.7216 4.49564 11.7216Z" fill="#0073FF"/>
</svg>
