<svg width="30" height="10" viewBox="0 0 30 10" fill="none" xmlns="http://www.w3.org/2000/svg">
<g clip-path="url(#clip0)">
<path d="M13.0005 9.85605H10.5703L12.0903 0.175781H14.5204L13.0005 9.85605Z" fill="#00579F"/>
<path d="M21.8095 0.412127C21.3302 0.216261 20.5699 0 19.6298 0C17.2299 0 15.5399 1.3181 15.5295 3.20257C15.5096 4.59294 16.7395 5.36518 17.6594 5.82877C18.5996 6.30249 18.9192 6.61169 18.9192 7.03395C18.9096 7.68246 18.1595 7.98139 17.4598 7.98139C16.4895 7.98139 15.9697 7.82727 15.1796 7.46647L14.8596 7.3118L14.5195 9.48481C15.0895 9.75226 16.1396 9.9896 17.2299 10C19.7798 10 21.4399 8.7023 21.4596 6.69409C21.4693 5.59212 20.8198 4.74774 19.4197 4.05776C18.5697 3.61484 18.0492 3.31618 18.0492 2.86299C18.0591 2.451 18.4894 2.02902 19.4489 2.02902C20.239 2.00835 20.8194 2.20394 21.2592 2.39967L21.479 2.50246L21.8095 0.412127Z" fill="#00579F"/>
<path d="M25.0412 6.42667C25.2413 5.87055 26.0114 3.71821 26.0114 3.71821C26.0013 3.73888 26.2112 3.15183 26.3312 2.79144L26.501 3.62555C26.501 3.62555 26.9612 5.94269 27.0612 6.42667C26.6814 6.42667 25.5212 6.42667 25.0412 6.42667ZM28.041 0.175781H26.1612C25.5815 0.175781 25.1411 0.350706 24.891 0.978957L21.2812 9.85591H23.8312C23.8312 9.85591 24.251 8.66114 24.3412 8.40382C24.621 8.40382 27.1016 8.40382 27.4614 8.40382C27.5312 8.74367 27.7514 9.85591 27.7514 9.85591H30.0015L28.041 0.175781Z" fill="#00579F"/>
<path d="M8.53904 0.175781L6.15906 6.7768L5.89899 5.43803C5.45898 3.89327 4.07902 2.21493 2.53906 1.38041L4.71904 9.84578H7.28892L11.1088 0.175781H8.53904Z" fill="#00579F"/>
<path d="M3.94997 0.175781H0.0400006L0 0.371374C3.05002 1.17469 5.06999 3.11104 5.89991 5.43844L5.04993 0.989496C4.90999 0.371237 4.47995 0.196175 3.94997 0.175781Z" fill="#FAA61A"/>
</g>
<defs>
<clipPath id="clip0">
<rect width="30" height="10" fill="white"/>
</clipPath>
</defs>
</svg>
