<svg width="24" height="24" viewBox="0 0 24 24" fill="none" xmlns="http://www.w3.org/2000/svg">
<g id="Icons / Interface / Visibiliti of">
<g id="Vector">
<path fill-rule="evenodd" clip-rule="evenodd" d="M4.19526 4.19526C4.45561 3.93491 4.87772 3.93491 5.13807 4.19526L19.8047 18.8619C20.0651 19.1223 20.0651 19.5444 19.8047 19.8047C19.5444 20.0651 19.1223 20.0651 18.8619 19.8047L4.19526 5.13807C3.93491 4.87772 3.93491 4.45561 4.19526 4.19526Z" fill="var(--neutral-7)"/>
<path fill-rule="evenodd" clip-rule="evenodd" d="M8.5114 7.5686C8.27526 7.33245 7.90082 7.30747 7.6354 7.51015C6.16594 8.63225 4.95344 10.0556 4.07923 11.6848C3.97681 11.8757 3.97351 12.1044 4.07038 12.2981L4.66667 12C4.07038 12.2981 4.07091 12.2992 4.07091 12.2992L4.07169 12.3008L4.07399 12.3053L4.08156 12.3201C4.08792 12.3325 4.0969 12.3498 4.1085 12.3717C4.13169 12.4155 4.16535 12.4778 4.20931 12.556C4.29719 12.7122 4.42657 12.9323 4.59622 13.195C4.93471 13.7191 5.43789 14.4196 6.09698 15.1226C7.40299 16.5157 9.40033 18 12 18L12.0109 17.9999C13.5859 17.9742 15.1114 17.4451 16.3641 16.4902C16.5171 16.3736 16.6123 16.1966 16.6252 16.0047C16.6381 15.8127 16.5674 15.6246 16.4314 15.4886L13.8874 12.9446L13.8827 12.9399L11.0601 10.1173L11.0555 10.1126L8.5114 7.5686ZM5.71628 12.4717C5.59728 12.2874 5.5011 12.1277 5.42838 12.0021C6.09956 10.8388 6.96688 9.80091 7.9914 8.93421L9.69069 10.6335C9.62435 10.7393 9.56537 10.8499 9.5143 10.9646C9.36855 11.2917 9.29018 11.6448 9.28386 12.0028C9.27754 12.3609 9.34341 12.7166 9.47753 13.0486C9.61165 13.3807 9.81127 13.6823 10.0645 13.9355C10.3177 14.1887 10.6193 14.3884 10.9514 14.5225C11.2834 14.6566 11.6391 14.7225 11.9972 14.7161C12.3552 14.7098 12.7083 14.6315 13.0354 14.4857C13.1501 14.4346 13.2607 14.3757 13.3665 14.3093L14.9143 15.8571C14.0291 16.3683 13.0249 16.6489 11.9946 16.6667C9.93008 16.6646 8.26263 15.4832 7.06969 14.2107C6.47878 13.5804 6.02362 12.9475 5.71628 12.4717ZM10.617 12.0264C10.6194 11.8907 10.6425 11.7564 10.6853 11.6281L12.3719 13.3147C12.2436 13.3575 12.1093 13.3806 11.9736 13.383C11.7946 13.3862 11.6168 13.3532 11.4508 13.2862C11.2847 13.2191 11.1339 13.1193 11.0073 12.9927C10.8807 12.8661 10.7809 12.7153 10.7138 12.5492C10.6468 12.3832 10.6138 12.2054 10.617 12.0264Z" fill="var(--neutral-7)"/>
<path d="M18.572 11.9985C18.3482 12.388 18.1021 12.7641 17.8351 13.1251L17.6183 13.4795C17.4137 13.814 17.3435 14.2136 17.4217 14.5979C17.5537 14.73 17.7352 14.8007 17.9218 14.7927C18.1084 14.7847 18.2832 14.6988 18.4034 14.5559C18.986 13.8635 19.4947 13.1123 19.9213 12.3143C20.0232 12.1236 20.0263 11.8953 19.9296 11.7019L19.9283 11.6992L19.926 11.6947L19.9184 11.6799C19.9121 11.6675 19.9031 11.6502 19.8915 11.6283C19.8683 11.5845 19.8347 11.5222 19.7907 11.444C19.7028 11.2878 19.5734 11.0677 19.4038 10.805C19.0653 10.2809 18.5621 9.5804 17.903 8.87737C16.5971 7.48443 14.6001 6.00029 12.0008 6C11.4781 5.99883 10.957 6.05841 10.4481 6.17755C10.2125 6.23268 10.0253 6.4111 9.95892 6.64374C9.89254 6.87637 9.95739 7.12671 10.1284 7.29786L12.0488 7.33355C14.0933 7.35198 15.7457 8.52575 16.9303 9.78929C17.5212 10.4196 17.9764 11.0525 18.2837 11.5284C18.4029 11.7129 18.4992 11.8728 18.572 11.9985Z" fill="var(--neutral-7)"/>
</g>
</g>
</svg>
