<svg width="24" height="24" viewBox="0 0 24 24" fill="none" xmlns="http://www.w3.org/2000/svg">
<g id="Icons / Interface / Visibiliti on">
<g id="Vector">
<path fill-rule="evenodd" clip-rule="evenodd" d="M5.42717 12C5.50003 12.1259 5.59663 12.2864 5.71629 12.4717C6.02364 12.9475 6.4788 13.5804 7.06971 14.2107C8.26371 15.4843 9.93305 16.6667 12.0001 16.6667C14.0671 16.6667 15.7364 15.4843 16.9304 14.2107C17.5213 13.5804 17.9765 12.9475 18.2838 12.4717C18.4035 12.2864 18.5001 12.1259 18.5729 12C18.5001 11.8741 18.4035 11.7136 18.2838 11.5284C17.9765 11.0525 17.5213 10.4196 16.9304 9.78929C15.7364 8.51571 14.0671 7.33333 12.0001 7.33333C9.93305 7.33333 8.26371 8.51571 7.06971 9.78929C6.4788 10.4196 6.02364 11.0525 5.71629 11.5284C5.59663 11.7136 5.50003 11.8741 5.42717 12ZM19.3334 12C19.9297 11.7019 19.9295 11.7014 19.9295 11.7014L19.9284 11.6992L19.9261 11.6947L19.9186 11.6799C19.9122 11.6675 19.9032 11.6502 19.8916 11.6283C19.8684 11.5845 19.8348 11.5222 19.7908 11.444C19.7029 11.2878 19.5735 11.0677 19.4039 10.805C19.0654 10.2809 18.5622 9.5804 17.9031 8.87737C16.5971 7.48429 14.5997 6 12.0001 6C9.40037 6 7.40301 7.48429 6.09699 8.87737C5.4379 9.5804 4.93472 10.2809 4.59623 10.805C4.42657 11.0677 4.2972 11.2878 4.20932 11.444C4.16535 11.5222 4.13169 11.5845 4.1085 11.6283C4.09691 11.6502 4.08792 11.6675 4.08156 11.6799L4.07399 11.6947L4.07169 11.6992L4.07091 11.7008C4.07091 11.7008 4.07038 11.7019 4.66667 12L4.07038 11.7019C3.97654 11.8895 3.97654 12.1105 4.07038 12.2981L4.66667 12C4.07038 12.2981 4.07038 12.2981 4.07038 12.2981L4.07169 12.3008L4.07399 12.3053L4.08156 12.3201C4.08792 12.3325 4.09691 12.3498 4.1085 12.3717C4.13169 12.4155 4.16535 12.4778 4.20932 12.556C4.2972 12.7122 4.42657 12.9323 4.59623 13.195C4.93472 13.7191 5.4379 14.4196 6.09699 15.1226C7.40301 16.5157 9.40037 18 12.0001 18C14.5997 18 16.5971 16.5157 17.9031 15.1226C18.5622 14.4196 19.0654 13.7191 19.4039 13.195C19.5735 12.9323 19.7029 12.7122 19.7908 12.556C19.8348 12.4778 19.8684 12.4155 19.8916 12.3717C19.9032 12.3498 19.9122 12.3325 19.9186 12.3201L19.9261 12.3053L19.9284 12.3008L19.9292 12.2992C19.9292 12.2992 19.9297 12.2981 19.3334 12ZM19.3334 12L19.9297 12.2981C20.0236 12.1105 20.0233 11.8891 19.9295 11.7014L19.3334 12Z" fill="var(--neutral-7)"/>
<path fill-rule="evenodd" clip-rule="evenodd" d="M12.0001 10.6667C11.2637 10.6667 10.6667 11.2636 10.6667 12C10.6667 12.7364 11.2637 13.3333 12.0001 13.3333C12.7364 13.3333 13.3334 12.7364 13.3334 12C13.3334 11.2636 12.7364 10.6667 12.0001 10.6667ZM9.33337 12C9.33337 10.5272 10.5273 9.33333 12.0001 9.33333C13.4728 9.33333 14.6667 10.5272 14.6667 12C14.6667 13.4728 13.4728 14.6667 12.0001 14.6667C10.5273 14.6667 9.33337 13.4728 9.33337 12Z" fill="var(--neutral-7)"/>
</g>
</g>
</svg>
