<svg width="15" height="14" viewBox="0 0 15 14" fill="none" xmlns="http://www.w3.org/2000/svg">
<path fill-rule="evenodd" clip-rule="evenodd" d="M1.54803 13.2226C2.07895 13.5585 2.68395 13.6666 3.06629 13.6666H13.0179C13.7048 13.6666 14.2334 13.44 14.5077 12.9489C14.7081 12.59 14.6972 12.1743 14.6933 12.0267C14.6929 12.0111 14.6925 11.9986 14.6925 11.9893V5.79564C14.6925 5.33297 14.5977 4.9337 14.397 4.60769C14.1929 4.27629 13.9102 4.07089 13.6235 3.94939C13.5241 3.90725 13.4217 3.87482 13.3199 3.84991V2.3548C13.3199 2.34957 13.3199 2.34399 13.3199 2.33807C13.3202 2.1592 13.3211 1.66987 13.0637 1.21815C12.7585 0.682588 12.1794 0.333294 11.3021 0.333294H3.06629C1.65497 0.333294 0.678539 1.49392 0.522766 2.60968C0.502214 2.75689 0.495099 2.90763 0.503379 3.05866V11.301C0.503379 12.2444 0.983835 12.8657 1.54803 13.2226ZM1.79119 2.98563C1.792 2.99481 1.79261 3.00405 1.79303 3.01333C1.80735 3.18745 1.87128 3.33146 1.97343 3.44043C2.11809 3.59473 2.42954 3.77415 3.06629 3.77415H12.0296V2.3548C12.0296 2.17389 12.0199 1.99252 11.9426 1.85703C11.9121 1.80348 11.8693 1.75528 11.7939 1.71535C11.7137 1.67293 11.5651 1.62361 11.3021 1.62361H3.06629C2.41858 1.62361 1.88511 2.18342 1.80069 2.78809C1.79101 2.85747 1.788 2.92339 1.79119 2.98563ZM1.7937 4.83888V11.301C1.7937 11.734 1.98615 11.9729 2.23785 12.1322C2.52282 12.3124 2.8767 12.3763 3.06629 12.3763H13.0179C13.2294 12.3763 13.3297 12.3426 13.3665 12.3252C13.3746 12.3214 13.3797 12.3183 13.3827 12.3163C13.3861 12.3081 13.3939 12.2845 13.3986 12.2346C13.4036 12.182 13.4033 12.1387 13.4027 12.0738C13.4024 12.0493 13.4022 12.0216 13.4022 11.9892V10.9139H10.2725C9.58213 10.9139 9.01721 10.6479 8.63161 10.2129C8.25665 9.78991 8.08317 9.24448 8.08317 8.72039C8.08317 8.1963 8.25665 7.65087 8.63161 7.2279C9.01721 6.79293 9.58213 6.52684 10.2725 6.52684H13.4022V5.79564C13.4022 5.50621 13.3433 5.35738 13.2983 5.28431C13.2566 5.21663 13.2015 5.17196 13.12 5.13741C12.9364 5.05961 12.7238 5.06146 12.468 5.06369C12.4238 5.06408 12.3783 5.06448 12.3315 5.06448H3.06629C2.58623 5.06448 2.15824 4.9887 1.7937 4.83888ZM13.4022 7.81716V9.62362H10.2725C9.93349 9.62362 9.7263 9.5026 9.59716 9.35693C9.45738 9.19926 9.37349 8.97049 9.37349 8.72039C9.37349 8.47029 9.45738 8.24152 9.59716 8.08385C9.7263 7.93818 9.93349 7.81716 10.2725 7.81716H13.4022Z" fill="#505F79"/>
</svg>
